<svg version="1.1" id="Layer_1" xmlns="http://www.w3.org/2000/svg" xmlns:xlink="http://www.w3.org/1999/xlink" x="0px" y="0px"
	 width="100%" viewBox="0 0 2048 2048" enable-background="new 0 0 2048 2048" xml:space="preserve">
<path fill="#FFFFFF" opacity="1.000000" stroke="none" 
	d="
M945.000000,2049.000000 
	C630.000000,2049.000000 315.500000,2049.000000 1.000000,2049.000000 
	C1.000000,1366.333374 1.000000,683.666687 1.000000,1.000000 
	C683.666687,1.000000 1366.333374,1.000000 2049.000000,1.000000 
	C2049.000000,683.666687 2049.000000,1366.333374 2049.000000,2049.000000 
	C1681.166626,2049.000000 1313.333374,2049.000000 945.000000,2049.000000 
M827.534119,987.038879 
	C827.643127,986.692871 827.752197,986.346802 828.342224,985.450928 
	C832.120911,974.299622 836.008728,963.183289 839.604919,951.973389 
	C840.555298,949.011047 840.606689,945.760254 841.060242,942.713135 
	C835.611267,941.290588 832.949463,943.881409 831.821167,947.229797 
	C826.698975,962.429932 821.960754,977.759521 816.945007,993.503906 
	C816.945007,993.503906 816.943481,993.985962 816.803955,994.492371 
	C816.823975,994.838623 816.844055,995.184875 816.307007,996.091614 
	C814.625122,1008.403381 812.943237,1020.715210 811.117737,1033.941406 
	C811.434570,1039.746826 811.293091,1045.621826 812.162720,1051.343140 
	C814.032593,1063.645142 819.408997,1074.169312 829.848022,1081.482422 
	C846.224976,1092.955444 869.857056,1091.379028 887.629089,1077.730713 
	C890.744507,1075.338135 893.664429,1072.690918 896.979004,1069.905762 
	C897.699768,1071.440674 898.399902,1072.566284 898.778687,1073.791260 
	C908.932922,1106.636230 923.034607,1137.861450 937.635315,1168.890747 
	C939.673584,1173.222534 942.109375,1175.769043 947.454224,1175.109253 
	C952.213440,1174.521973 957.110779,1174.801147 961.930054,1175.040894 
	C965.181030,1175.202759 966.471191,1173.869995 967.566467,1170.889404 
	C972.212280,1158.246948 977.048706,1145.669067 982.104370,1133.184692 
	C985.162231,1125.633545 988.694519,1118.271240 992.124756,1110.875732 
	C993.623596,1107.644287 992.801697,1105.564941 990.190857,1103.093994 
	C984.037292,1097.270386 977.872009,1091.342041 972.565552,1084.766602 
	C963.523010,1073.561401 956.034729,1061.330200 959.092896,1046.003174 
	C960.937805,1036.756958 963.175537,1027.401611 966.803345,1018.752136 
	C970.358826,1010.274902 971.115845,1002.151550 970.483582,993.115295 
	C969.721313,982.221008 970.541260,971.175842 971.260925,960.234497 
	C971.636475,954.523804 973.651123,953.478882 978.273376,956.606079 
	C988.162415,963.296265 997.871094,970.301636 1007.198059,977.748596 
	C1010.631714,980.490112 1013.424622,981.865051 1017.827271,980.795349 
	C1029.970337,977.844543 1042.373413,977.747375 1054.462402,980.457153 
	C1060.442017,981.797363 1063.824951,979.785339 1068.075439,976.349731 
	C1077.237549,968.944275 1086.865723,962.092590 1096.540405,955.355103 
	C1100.726562,952.439880 1102.134033,953.300842 1103.354492,958.242249 
	C1103.671997,959.527771 1104.063843,960.858582 1104.028076,962.157776 
	C1103.640137,976.250000 1103.130615,990.338867 1102.773315,1004.431702 
	C1102.716919,1006.652527 1102.881104,1009.011902 1103.576416,1011.095947 
	C1106.781494,1020.701111 1110.635986,1030.107788 1113.460205,1039.817627 
	C1117.795654,1054.722656 1115.122925,1068.621216 1105.061035,1080.583984 
	C1098.542358,1088.334351 1091.811523,1096.010986 1084.358643,1102.827271 
	C1080.562378,1106.299194 1080.431885,1108.699707 1082.387817,1112.830811 
	C1091.500244,1132.077271 1100.928345,1151.219360 1106.176270,1172.015869 
	C1106.975342,1175.181885 1109.128540,1174.995239 1111.523804,1174.993164 
	C1134.347778,1174.972656 1157.171875,1175.027344 1179.995728,1174.987671 
	C1195.318115,1174.961182 1210.640259,1174.817383 1226.851440,1174.911377 
	C1232.832520,1175.906982 1237.754761,1174.278442 1241.995605,1169.031006 
	C1242.681030,1168.741455 1243.366455,1168.452026 1244.384888,1168.329590 
	C1244.655273,1168.265625 1244.828369,1168.099976 1245.699829,1167.899780 
	C1246.482178,1167.773926 1247.264648,1167.648071 1248.947876,1167.756470 
	C1253.591675,1167.725098 1258.236206,1167.734985 1262.879028,1167.648071 
	C1265.948120,1167.590576 1267.872070,1166.352051 1267.827759,1162.866089 
	C1267.751831,1156.895386 1268.010986,1150.915283 1267.744507,1144.956299 
	C1267.688477,1143.703491 1265.970703,1142.525024 1264.261230,1141.116577 
	C1263.482422,1141.125122 1262.703735,1141.133667 1261.147827,1140.953003 
	C1254.102417,1139.633179 1247.057129,1138.313354 1239.453613,1136.546875 
	C1230.539062,1133.341431 1221.457520,1130.524536 1212.770020,1126.790771 
	C1207.180176,1124.388428 1201.714233,1124.007690 1195.806885,1124.064209 
	C1176.868530,1124.245483 1157.924927,1124.053223 1138.985840,1123.810425 
	C1135.978271,1123.771851 1132.983643,1122.728760 1129.983032,1122.150024 
	C1130.024536,1121.588257 1130.066162,1121.026489 1130.107666,1120.464722 
	C1135.037842,1118.155762 1139.996338,1115.905029 1144.891235,1113.523438 
	C1151.294312,1110.407837 1157.646973,1107.188965 1164.447510,1104.552490 
	C1166.258667,1105.383545 1168.035400,1106.301636 1169.886230,1107.031982 
	C1185.620728,1113.242188 1201.974854,1116.859619 1218.796143,1118.263916 
	C1241.172852,1120.132080 1263.500854,1120.033813 1284.741211,1111.638550 
	C1303.141602,1104.365845 1317.452026,1092.466797 1323.116821,1072.488525 
	C1326.211182,1061.575806 1325.905396,1050.773071 1320.998535,1040.364990 
	C1319.318848,1036.802490 1316.502930,1034.653564 1312.547729,1036.571533 
	C1308.713989,1038.430420 1310.373657,1041.415771 1311.660645,1044.259644 
	C1317.948120,1058.151367 1314.893677,1071.013550 1306.656494,1082.916016 
	C1297.907349,1095.557983 1284.673340,1101.372681 1270.375610,1105.027100 
	C1245.645996,1111.347778 1220.884399,1109.914673 1196.300171,1104.250732 
	C1188.965942,1102.561035 1181.957275,1099.458130 1175.453491,1096.737305 
	C1188.422241,1087.200806 1201.391113,1077.664185 1215.009766,1067.981567 
	C1220.899902,1063.367432 1226.921753,1058.910522 1232.656372,1054.110596 
	C1252.403809,1037.582275 1269.867310,1019.415955 1277.706665,993.838562 
	C1281.148193,982.609741 1286.843994,972.414307 1295.922974,964.478394 
	C1316.825806,946.206970 1348.729858,950.760559 1360.920654,973.732910 
	C1363.107788,977.854187 1366.202515,979.417480 1370.700562,980.157288 
	C1378.159180,981.384033 1385.597412,983.188721 1392.197266,988.529297 
	C1390.623535,989.337830 1389.675293,989.986511 1388.627441,990.336670 
	C1382.482910,992.389282 1376.216064,994.114685 1370.179443,996.441101 
	C1361.831787,999.658081 1358.669678,1004.284119 1359.068726,1013.310242 
	C1359.316040,1018.906433 1360.348755,1024.524902 1361.577881,1030.010376 
	C1366.276855,1050.981934 1365.251465,1071.409180 1355.593872,1090.849365 
	C1340.844971,1120.538086 1317.138672,1137.694702 1283.886597,1141.282959 
	C1282.245972,1141.460083 1279.547363,1143.397095 1279.475220,1144.638672 
	C1279.053467,1151.893921 1279.268311,1159.186157 1279.268311,1167.095337 
	C1284.274902,1167.095337 1288.732788,1166.949463 1293.177246,1167.130249 
	C1299.565308,1167.389893 1305.788086,1168.117798 1310.413452,1173.501221 
	C1311.302856,1174.536499 1313.365356,1175.098511 1314.837036,1175.013794 
	C1325.783936,1174.383545 1336.936035,1174.648071 1347.618774,1172.560181 
	C1391.366699,1164.009888 1426.335327,1141.665527 1450.100952,1103.508423 
	C1472.494507,1067.554443 1478.899780,1028.552490 1469.975220,987.093628 
	C1463.706055,957.970703 1449.744873,932.893494 1428.914307,911.867004 
	C1413.882202,896.693359 1396.016357,885.366577 1375.974854,877.753174 
	C1372.951904,876.604858 1371.952759,875.118896 1371.949219,871.966919 
	C1371.942871,866.326050 1371.685669,860.655273 1371.057861,855.050293 
	C1367.191040,820.526855 1352.431641,791.310242 1326.629150,768.204895 
	C1289.377686,734.847473 1246.079468,726.972229 1198.734497,740.873901 
	C1186.770630,744.386719 1175.635376,750.721436 1163.403198,756.072876 
	C1164.290039,756.647522 1163.901611,756.532715 1163.756836,756.278992 
	C1163.017456,754.982849 1162.290161,753.675171 1161.649780,752.328125 
	C1142.542969,712.137268 1114.140137,680.073730 1076.187622,656.987854 
	C1029.257324,628.440796 978.267761,618.593201 924.194214,628.424133 
	C871.897217,637.932129 828.723633,663.968750 795.377747,705.309692 
	C765.179932,742.747742 747.438477,785.290710 746.948730,834.067383 
	C746.906982,838.223633 745.306274,838.930359 741.624512,839.072449 
	C733.167419,839.398621 724.623779,839.617249 716.303467,841.006348 
	C660.442017,850.333130 619.217468,880.471924 593.136108,930.450500 
	C575.434448,964.371521 571.170227,1000.905518 579.049561,1038.207764 
	C591.505615,1097.176880 626.249207,1138.447021 681.527588,1162.262329 
	C705.808472,1172.723267 731.491943,1175.117554 757.720154,1175.253296 
	C768.857727,1175.310913 775.716553,1172.562256 780.613342,1161.942505 
	C788.624878,1144.567627 796.879333,1127.474609 794.990723,1107.689087 
	C793.078003,1087.651367 782.711426,1074.658447 762.461914,1072.996948 
	C746.559570,1071.692261 730.603027,1071.063110 714.683838,1069.944824 
	C703.463562,1069.156738 692.015442,1067.818359 683.523865,1059.713623 
	C668.664124,1045.530884 662.198792,1027.459351 662.202576,1007.117126 
	C662.203857,1000.334839 664.625122,998.249146 671.384033,996.840027 
	C688.612610,993.247925 705.920471,989.974182 723.015381,985.826050 
	C733.341370,983.320374 743.331848,979.062195 747.370178,967.954956 
	C753.104126,952.184021 765.242737,943.961792 780.203491,939.038147 
	C804.189575,931.144348 828.446716,930.103210 853.342163,937.687622 
	C858.397034,940.787720 864.301697,943.045349 868.357300,947.136047 
	C884.529541,963.448425 897.684753,982.013000 906.546570,1003.338440 
	C909.408691,1010.225830 911.845276,1017.353333 910.370789,1025.113647 
	C905.961914,1048.317505 892.293640,1064.678467 871.499939,1074.506226 
	C848.831848,1085.219727 826.860107,1073.310913 822.044983,1048.632812 
	C820.855469,1042.536377 820.746582,1036.229248 820.571655,1029.353760 
	C820.908447,1026.250366 821.096558,1023.122192 821.608948,1020.048096 
	C823.333740,1009.701233 825.173767,999.373596 827.127136,988.508484 
	C827.123596,988.142395 827.119995,987.776245 827.534119,987.038879 
M653.121338,1386.140259 
	C645.767212,1358.487915 638.427490,1330.831665 631.051941,1303.185059 
	C628.102051,1292.127686 628.066101,1292.143066 616.497742,1292.157837 
	C608.445496,1292.168091 600.393250,1292.159790 591.638245,1292.159790 
	C597.581360,1310.962280 603.336609,1328.822388 608.869141,1346.751221 
	C618.280518,1377.250000 627.678101,1407.754761 636.749817,1438.355347 
	C638.159851,1443.111694 640.248535,1444.443848 644.962524,1444.214233 
	C653.272339,1443.809448 661.629578,1443.810181 669.939392,1444.211670 
	C674.096619,1444.412476 675.686584,1442.920776 676.889893,1439.160034 
	C689.763306,1398.926392 702.823853,1358.752563 715.781982,1318.545898 
	C718.520142,1310.050171 721.051086,1301.487793 723.897156,1292.242798 
	C712.809265,1292.242798 702.381958,1292.368042 691.960815,1292.168213 
	C688.736511,1292.106323 687.340332,1293.072388 686.477844,1296.266357 
	C679.411194,1322.436279 672.098450,1348.539429 664.981140,1374.695801 
	C662.430359,1384.069946 660.210571,1393.534180 657.527771,1404.197266 
	C655.904846,1397.564575 654.605469,1392.254028 653.121338,1386.140259 
M796.243286,1444.704834 
	C807.264832,1442.054199 817.195312,1437.446045 825.023987,1429.104004 
	C819.715210,1422.563354 814.645935,1416.317871 809.580688,1410.077271 
	C798.464294,1418.301514 786.183594,1420.571899 772.969116,1417.975830 
	C763.623596,1416.139771 758.274841,1409.500977 758.092651,1399.694458 
	C760.195923,1399.560303 762.320984,1399.315552 764.447144,1399.305908 
	C784.278137,1399.216064 804.110107,1399.052490 823.939636,1399.201172 
	C827.934204,1399.231079 829.335144,1397.873047 829.213318,1394.113647 
	C829.046143,1388.954346 829.339783,1383.764893 828.911499,1378.632080 
	C826.931274,1354.901855 813.677795,1337.621094 792.509033,1332.708130 
	C784.557983,1330.862671 775.876221,1330.409790 767.765137,1331.356689 
	C747.796814,1333.687500 734.113586,1344.586060 727.891418,1364.143799 
	C724.130066,1375.966675 723.692871,1388.041504 725.079163,1400.232788 
	C727.736755,1423.604492 741.536926,1440.051880 764.188965,1444.336426 
	C774.271851,1446.243530 784.988098,1444.802124 796.243286,1444.704834 
M887.303284,1408.575073 
	C887.303284,1391.973633 887.303284,1375.372314 887.303284,1358.219482 
	C894.581238,1358.219482 901.524963,1358.219482 908.434570,1358.219482 
	C908.434570,1349.563477 908.434570,1341.466431 908.434570,1332.938232 
	C901.209290,1332.938232 894.285156,1332.938232 886.871033,1332.938232 
	C886.871033,1323.120728 886.871033,1313.728394 886.871033,1304.275024 
	C875.662231,1304.275024 864.963135,1304.275024 853.841736,1304.275024 
	C853.841736,1314.091553 853.841736,1323.506958 853.841736,1333.352783 
	C848.495361,1333.352783 843.572388,1333.352783 838.478882,1333.352783 
	C838.478882,1342.008789 838.478882,1350.213745 838.478882,1358.866943 
	C843.754089,1358.866943 848.686462,1358.866943 854.074890,1358.866943 
	C854.074890,1361.265381 854.049927,1363.219604 854.078857,1365.173096 
	C854.337708,1382.648804 854.182251,1400.145020 855.027405,1417.592651 
	C855.550659,1428.395996 860.905518,1436.951904 871.153442,1441.621582 
	C882.041809,1446.582764 893.363220,1446.951782 904.830627,1444.054077 
	C905.971130,1443.765747 907.643860,1442.341675 907.671692,1441.403198 
	C907.901733,1433.651367 907.801758,1425.889771 907.801758,1418.169922 
	C904.229858,1418.169922 901.073120,1418.336548 897.940125,1418.135010 
	C891.653442,1417.730225 889.279724,1415.653320 887.303284,1408.575073 
M1466.489868,1428.003418 
	C1469.662842,1421.138672 1474.806152,1414.495605 1475.608032,1407.364258 
	C1477.401611,1391.414917 1477.457520,1375.220215 1477.375732,1359.129761 
	C1477.330688,1350.277466 1474.536865,1341.820557 1469.390991,1334.288086 
	C1462.654175,1324.426636 1453.521851,1317.465088 1441.823120,1316.287231 
	C1424.216187,1314.514526 1406.443359,1314.390991 1388.395020,1313.550171 
	C1388.395020,1357.748779 1388.395020,1400.583984 1388.395020,1444.610352 
	C1406.360840,1443.974854 1423.979126,1444.078857 1441.435059,1442.446289 
	C1451.061401,1441.546143 1459.780518,1436.627563 1466.489868,1428.003418 
M1237.873657,1376.500000 
	C1237.849487,1370.333862 1238.362793,1364.105347 1237.655273,1358.018677 
	C1236.894653,1351.474609 1235.952393,1344.653442 1233.405029,1338.670166 
	C1225.037842,1319.015869 1204.088867,1308.827637 1181.854004,1312.766968 
	C1159.778198,1316.678101 1145.137451,1331.788818 1144.243408,1353.158203 
	C1143.506592,1370.769043 1143.550415,1388.464111 1144.417236,1406.064331 
	C1144.746826,1412.757690 1147.364502,1419.825562 1150.641235,1425.787354 
	C1157.987305,1439.153076 1170.542236,1444.830078 1185.303467,1446.113403 
	C1210.890747,1448.338379 1230.931641,1436.172241 1235.727905,1411.287231 
	C1237.846436,1400.295288 1237.242188,1388.778564 1237.873657,1376.500000 
M931.899536,1343.386841 
	C931.666504,1344.696045 931.233887,1346.004883 931.230530,1347.314697 
	C931.182007,1366.145630 930.665222,1384.996460 931.372742,1403.800781 
	C931.840576,1416.232666 936.153076,1427.815796 946.156006,1436.049927 
	C963.724487,1450.512207 992.593628,1451.066772 1011.098328,1437.723999 
	C1020.905151,1430.652710 1027.791138,1414.444092 1025.056152,1404.206055 
	C1022.363892,1404.206055 1019.534424,1404.438721 1016.758911,1404.151123 
	C1012.663147,1403.726929 1011.337341,1405.340820 1011.066467,1409.405273 
	C1010.543335,1417.255005 1006.925720,1423.958008 1000.670776,1428.609131 
	C980.532776,1443.583252 949.602661,1431.453125 947.277222,1406.611816 
	C945.395325,1386.508789 946.080505,1366.042847 947.210693,1345.826538 
	C947.891418,1333.649414 955.667847,1324.577881 967.750427,1321.337769 
	C980.897339,1317.812134 994.190247,1318.386230 1003.338440,1330.130615 
	C1007.821228,1335.885498 1009.756104,1343.625122 1013.332825,1351.549194 
	C1015.386169,1351.549194 1019.216187,1351.812744 1022.967896,1351.386841 
	C1024.076416,1351.260864 1025.896606,1349.115479 1025.810425,1348.019775 
	C1024.810791,1335.299072 1020.639832,1323.945190 1010.252686,1315.760742 
	C999.723511,1307.464233 987.389343,1305.546387 974.415894,1306.056030 
	C951.928406,1306.939209 936.306519,1320.354248 931.899536,1343.386841 
M1285.064331,1439.444580 
	C1296.104126,1446.160034 1308.111938,1447.627197 1320.651978,1445.821411 
	C1340.816650,1442.917603 1355.145874,1428.690674 1355.616089,1408.908936 
	C1356.336792,1378.599487 1355.836914,1348.259766 1355.645142,1317.934326 
	C1355.637451,1316.724976 1353.672852,1315.057373 1352.258301,1314.459961 
	C1350.848022,1313.864502 1348.951660,1314.556519 1347.321289,1314.319946 
	C1342.459717,1313.614868 1341.176392,1315.590454 1341.202759,1320.399536 
	C1341.361572,1349.391968 1341.337769,1378.387573 1341.057495,1407.379150 
	C1340.930542,1420.513306 1334.027100,1429.396484 1322.243896,1432.507080 
	C1319.380371,1433.262817 1316.327148,1433.516724 1313.350952,1433.589111 
	C1303.700073,1433.823975 1294.714233,1432.028198 1288.242188,1423.977539 
	C1283.430786,1417.992676 1281.835938,1410.885010 1281.805176,1403.407349 
	C1281.696045,1376.913208 1281.729004,1350.418335 1281.607910,1323.924316 
	C1281.557251,1312.870483 1283.370361,1314.584839 1271.665894,1314.265625 
	C1268.170288,1314.170166 1267.074463,1315.435059 1267.088501,1318.903564 
	C1267.203369,1347.563843 1266.915894,1376.227783 1267.275757,1404.884155 
	C1267.450439,1418.795044 1271.986328,1431.054932 1285.064331,1439.444580 
M1067.850708,1387.500000 
	C1067.846924,1377.506836 1067.842407,1367.513794 1067.839355,1357.520630 
	C1067.835327,1344.696167 1067.835815,1331.871826 1067.825195,1319.047363 
	C1067.823486,1316.905640 1068.257446,1314.443604 1064.902344,1314.427979 
	C1061.122559,1314.410400 1057.342529,1314.423950 1053.586914,1314.423950 
	C1053.586914,1357.946411 1053.586914,1400.804810 1053.586914,1443.742798 
	C1055.030396,1443.860840 1056.015625,1444.004272 1057.002075,1444.013062 
	C1078.976074,1444.208740 1100.950073,1444.408325 1122.924438,1444.563232 
	C1130.716797,1444.618164 1130.461548,1444.555908 1130.754761,1436.752930 
	C1130.921997,1432.302246 1129.468750,1431.072876 1125.089111,1431.130005 
	C1107.937500,1431.354004 1090.781006,1431.214355 1073.626343,1431.183350 
	C1071.863892,1431.180176 1070.101685,1430.999023 1067.850464,1430.873169 
	C1067.850464,1416.417480 1067.850464,1402.458740 1067.850708,1387.500000 
M770.134644,993.717407 
	C770.960815,993.779663 771.793396,993.941406 772.612061,993.888000 
	C777.520874,993.567688 781.090393,989.720032 780.810425,985.109070 
	C780.517273,980.280884 775.658447,975.963440 771.039185,976.426636 
	C766.445251,976.887268 763.000488,981.140503 764.231445,986.201355 
	C764.880432,988.869202 767.612976,991.030334 770.134644,993.717407 
M1328.879639,980.343201 
	C1329.821655,983.104675 1330.040039,986.564148 1331.873901,988.465332 
	C1334.684082,991.378723 1340.164917,989.974915 1342.302612,986.621155 
	C1344.382446,983.358582 1343.284302,978.962463 1339.807617,976.631897 
	C1335.777832,973.930603 1332.145264,974.941956 1328.879639,980.343201 
z"/>
<path fill="#74C4DE" opacity="1.000000" stroke="none" 
	d="
M852.865112,937.164795 
	C828.446716,930.103210 804.189575,931.144348 780.203491,939.038147 
	C765.242737,943.961792 753.104126,952.184021 747.370178,967.954956 
	C743.331848,979.062195 733.341370,983.320374 723.015381,985.826050 
	C705.920471,989.974182 688.612610,993.247925 671.384033,996.840027 
	C664.625122,998.249146 662.203857,1000.334839 662.202576,1007.117126 
	C662.198792,1027.459351 668.664124,1045.530884 683.523865,1059.713623 
	C692.015442,1067.818359 703.463562,1069.156738 714.683838,1069.944824 
	C730.603027,1071.063110 746.559570,1071.692261 762.461914,1072.996948 
	C782.711426,1074.658447 793.078003,1087.651367 794.990723,1107.689087 
	C796.879333,1127.474609 788.624878,1144.567627 780.613342,1161.942505 
	C775.716553,1172.562256 768.857727,1175.310913 757.720154,1175.253296 
	C731.491943,1175.117554 705.808472,1172.723267 681.527588,1162.262329 
	C626.249207,1138.447021 591.505615,1097.176880 579.049561,1038.207764 
	C571.170227,1000.905518 575.434448,964.371521 593.136108,930.450500 
	C619.217468,880.471924 660.442017,850.333130 716.303467,841.006348 
	C724.623779,839.617249 733.167419,839.398621 741.624512,839.072449 
	C745.306274,838.930359 746.906982,838.223633 746.948730,834.067383 
	C747.438477,785.290710 765.179932,742.747742 795.377747,705.309692 
	C828.723633,663.968750 871.897217,637.932129 924.194214,628.424133 
	C978.267761,618.593201 1029.257324,628.440796 1076.187622,656.987854 
	C1114.140137,680.073730 1142.542969,712.137268 1161.649780,752.328125 
	C1162.290161,753.675171 1163.017456,754.982849 1163.756836,756.278992 
	C1163.901611,756.532715 1164.290039,756.647522 1163.403198,756.072876 
	C1175.635376,750.721436 1186.770630,744.386719 1198.734497,740.873901 
	C1246.079468,726.972229 1289.377686,734.847473 1326.629150,768.204895 
	C1352.431641,791.310242 1367.191040,820.526855 1371.057861,855.050293 
	C1371.685669,860.655273 1371.942871,866.326050 1371.949219,871.966919 
	C1371.952759,875.118896 1372.951904,876.604858 1375.974854,877.753174 
	C1396.016357,885.366577 1413.882202,896.693359 1428.914307,911.867004 
	C1449.744873,932.893494 1463.706055,957.970703 1469.975220,987.093628 
	C1478.899780,1028.552490 1472.494507,1067.554443 1450.100952,1103.508423 
	C1426.335327,1141.665527 1391.366699,1164.009888 1347.618774,1172.560181 
	C1336.936035,1174.648071 1325.783936,1174.383545 1314.837036,1175.013794 
	C1313.365356,1175.098511 1311.302856,1174.536499 1310.413452,1173.501221 
	C1305.788086,1168.117798 1299.565308,1167.389893 1293.177246,1167.130249 
	C1288.732788,1166.949463 1284.274902,1167.095337 1279.268311,1167.095337 
	C1279.268311,1159.186157 1279.053467,1151.893921 1279.475220,1144.638672 
	C1279.547363,1143.397095 1282.245972,1141.460083 1283.886597,1141.282959 
	C1317.138672,1137.694702 1340.844971,1120.538086 1355.593872,1090.849365 
	C1365.251465,1071.409180 1366.276855,1050.981934 1361.577881,1030.010376 
	C1360.348755,1024.524902 1359.316040,1018.906433 1359.068726,1013.310242 
	C1358.669678,1004.284119 1361.831787,999.658081 1370.179443,996.441101 
	C1376.216064,994.114685 1382.482910,992.389282 1388.627441,990.336670 
	C1389.675293,989.986511 1390.623535,989.337830 1392.197266,988.529297 
	C1385.597412,983.188721 1378.159180,981.384033 1370.700562,980.157288 
	C1366.202515,979.417480 1363.107788,977.854187 1360.920654,973.732910 
	C1348.729858,950.760559 1316.825806,946.206970 1295.922974,964.478394 
	C1286.843994,972.414307 1281.148193,982.609741 1277.706665,993.838562 
	C1269.867310,1019.415955 1252.403809,1037.582275 1232.656372,1054.110596 
	C1226.921753,1058.910522 1220.899902,1063.367432 1214.290771,1067.986084 
	C1212.376465,1065.720459 1211.181152,1063.450073 1210.322510,1061.090088 
	C1214.324951,1057.876221 1217.896729,1054.632202 1221.686279,1051.666626 
	C1224.655029,1049.343262 1225.049072,1047.218384 1223.313599,1043.652832 
	C1215.149658,1026.879517 1207.489990,1009.868591 1205.467529,991.008789 
	C1203.654175,974.097900 1207.226562,959.076294 1221.851074,948.612427 
	C1227.234253,944.760681 1233.225586,941.751038 1238.983643,938.434082 
	C1242.715698,936.284302 1246.322998,934.097168 1247.191528,929.084045 
	C1244.553833,929.084045 1242.234375,929.084045 1239.915039,929.084045 
	C1237.528564,929.084045 1235.141968,929.084045 1232.755493,929.084045 
	C1235.307861,926.985291 1238.052002,926.087952 1240.734253,925.033386 
	C1251.629883,920.749695 1252.833618,918.477112 1250.467285,906.966309 
	C1250.166260,905.502075 1249.897949,904.030884 1249.629150,902.560303 
	C1248.838257,898.234131 1246.838623,896.672546 1241.995239,897.390625 
	C1231.534668,898.941162 1221.053833,898.937500 1211.425659,893.330811 
	C1195.939209,884.312622 1179.938477,885.105713 1163.826538,891.211121 
	C1160.018188,892.654175 1156.767334,892.986450 1152.891357,891.332581 
	C1148.642090,889.519287 1144.043091,888.427917 1139.511475,887.394409 
	C1129.604614,885.135071 1119.582520,884.194946 1108.495239,885.387756 
	C1109.712769,889.788757 1110.309082,893.946838 1111.995361,897.602051 
	C1115.044922,904.212036 1118.745239,910.521729 1121.833740,917.084961 
	C1119.430664,916.983032 1117.338257,916.899658 1115.310059,916.494812 
	C1109.869385,915.408752 1104.465454,913.234619 1099.030762,913.182678 
	C1076.989868,912.972290 1057.528931,919.601990 1042.150024,936.248474 
	C1036.589111,942.267700 1036.384521,942.078735 1030.153076,936.661743 
	C1026.782959,921.835693 1023.474304,907.423828 1020.088867,892.677490 
	C1018.592834,895.205933 1017.372375,897.560486 1015.885742,899.732788 
	C1007.270020,912.322571 995.825684,918.514832 980.150940,916.253723 
	C974.699768,915.467346 968.903992,915.471619 963.482544,916.392212 
	C950.080994,918.667847 938.734802,915.611145 929.722839,905.249512 
	C927.162659,902.305908 925.045349,898.976990 922.669983,895.750183 
	C920.115295,906.663940 917.935730,917.513794 914.995972,928.153564 
	C911.112915,942.207214 906.633972,956.096252 902.038086,970.022339 
	C899.600403,967.964661 896.779114,966.305237 895.598511,963.855164 
	C889.518799,951.238647 878.024780,943.510986 868.898010,933.675049 
	C866.597717,931.195801 863.295837,929.627869 860.399048,927.725220 
	C857.466980,925.799500 855.253601,925.474792 854.752319,930.044189 
	C854.487549,932.457703 853.517029,934.793762 852.865112,937.164795 
M1021.408508,758.161865 
	C1014.525635,746.595276 1004.497253,739.752441 991.164246,737.525146 
	C976.417603,735.061829 961.787598,735.393066 947.039124,737.763611 
	C934.373230,739.799438 926.143066,747.200195 920.075012,757.799805 
	C912.332214,771.324890 909.332642,786.244446 906.927856,801.411682 
	C904.810364,814.767029 906.394653,827.228943 911.916931,839.765442 
	C917.926147,853.407349 922.280029,867.775024 927.458801,881.788208 
	C929.010620,885.987305 930.575256,890.240356 932.711121,894.153687 
	C938.516907,904.791016 946.866821,908.975769 958.737122,907.045654 
	C966.613159,905.764954 974.261108,904.394165 982.302002,906.697937 
	C985.754517,907.687134 989.949402,906.956177 993.618896,906.150269 
	C1003.725037,903.930725 1008.596497,895.954346 1011.920166,887.295288 
	C1017.627075,872.427124 1022.110535,857.080078 1028.053223,842.314636 
	C1033.003296,830.015076 1037.508789,818.226257 1035.242676,804.349121 
	C1032.654053,788.496582 1029.759399,772.953064 1021.408508,758.161865 
M859.519775,785.020569 
	C857.538147,787.045166 855.623291,789.140686 853.562683,791.081360 
	C846.566406,797.670715 843.942200,805.611023 847.512756,814.622742 
	C851.662354,825.096069 856.199951,835.455811 861.289978,845.499573 
	C863.884705,850.619507 867.870667,855.093079 871.560913,859.585266 
	C877.051514,866.268799 883.388977,865.648193 887.407410,858.071289 
	C888.949646,855.163330 890.360718,851.988159 890.896729,848.778625 
	C893.082703,835.688110 895.327881,822.583313 896.772705,809.398438 
	C899.403015,785.396179 903.126282,761.883728 919.956604,742.017883 
	C910.424866,743.105347 902.370850,745.932495 895.765442,751.827942 
	C883.719604,762.579041 871.921448,773.607544 859.519775,785.020569 
M1042.868652,750.596558 
	C1036.758667,746.641846 1030.451538,743.242493 1023.589783,743.029175 
	C1027.784180,750.952209 1032.500732,758.574341 1035.995605,766.720520 
	C1044.328613,786.143616 1044.720093,807.104004 1047.188965,827.695923 
	C1048.380371,837.631714 1050.327515,847.827087 1054.114136,857.004700 
	C1058.034546,866.506348 1064.922119,866.807495 1071.386719,858.800415 
	C1082.265259,845.326172 1090.221802,830.219849 1094.628784,813.384338 
	C1096.469604,806.351929 1095.669189,799.657104 1090.176270,794.479004 
	C1074.699341,779.888489 1059.039551,765.491943 1042.868652,750.596558 
z"/>
<path fill="#89BF96" opacity="1.000000" stroke="none" 
	d="
M1030.214600,937.076050 
	C1036.384521,942.078735 1036.589111,942.267700 1042.150024,936.248474 
	C1057.528931,919.601990 1076.989868,912.972290 1099.030762,913.182678 
	C1104.465454,913.234619 1109.869385,915.408752 1115.310059,916.494812 
	C1117.338257,916.899658 1119.430664,916.983032 1122.128906,917.219849 
	C1124.970215,919.483948 1127.198608,921.719788 1129.378662,924.001892 
	C1143.557495,938.844360 1151.033203,956.522400 1150.967285,977.058350 
	C1150.946411,983.569519 1149.465454,990.075989 1148.719849,996.047180 
	C1156.506104,1000.509827 1164.706177,1004.333069 1171.879028,1009.564697 
	C1179.209229,1014.911133 1185.957520,1021.238281 1192.192871,1027.859009 
	C1201.050903,1037.264648 1208.073853,1047.931152 1209.985840,1061.179810 
	C1211.181152,1063.450073 1212.376465,1065.720459 1213.965820,1068.059082 
	C1201.391113,1077.664185 1188.422241,1087.200806 1174.822266,1097.018921 
	C1170.801147,1099.538574 1167.411255,1101.776489 1164.021362,1104.014526 
	C1157.646973,1107.188965 1151.294312,1110.407837 1144.891235,1113.523438 
	C1139.996338,1115.905029 1135.037842,1118.155762 1130.107666,1120.464722 
	C1130.066162,1121.026489 1130.024536,1121.588257 1129.983032,1122.150024 
	C1132.983643,1122.728760 1135.978271,1123.771851 1138.985840,1123.810425 
	C1157.924927,1124.053223 1176.868530,1124.245483 1195.806885,1124.064209 
	C1201.714233,1124.007690 1207.180176,1124.388428 1212.770020,1126.790771 
	C1221.457520,1130.524536 1230.539062,1133.341431 1239.733154,1137.212280 
	C1240.085693,1144.820679 1238.358398,1151.231934 1234.917114,1157.312500 
	C1231.704712,1162.988281 1228.929932,1168.911743 1225.962646,1174.726196 
	C1210.640259,1174.817383 1195.318115,1174.961182 1179.995728,1174.987671 
	C1157.171875,1175.027344 1134.347778,1174.972656 1111.523804,1174.993164 
	C1109.128540,1174.995239 1106.975342,1175.181885 1106.176270,1172.015869 
	C1100.928345,1151.219360 1091.500244,1132.077271 1082.387817,1112.830811 
	C1080.431885,1108.699707 1080.562378,1106.299194 1084.358643,1102.827271 
	C1091.811523,1096.010986 1098.542358,1088.334351 1105.061035,1080.583984 
	C1115.122925,1068.621216 1117.795654,1054.722656 1113.460205,1039.817627 
	C1110.635986,1030.107788 1106.781494,1020.701111 1103.576416,1011.095947 
	C1102.881104,1009.011902 1102.716919,1006.652527 1102.773315,1004.431702 
	C1103.130615,990.338867 1103.640137,976.250000 1104.028076,962.157776 
	C1104.063843,960.858582 1103.671997,959.527771 1103.354492,958.242249 
	C1102.134033,953.300842 1100.726562,952.439880 1096.540405,955.355103 
	C1086.865723,962.092590 1077.237549,968.944275 1068.075439,976.349731 
	C1063.824951,979.785339 1060.442017,981.797363 1054.462402,980.457153 
	C1042.373413,977.747375 1029.970337,977.844543 1017.827271,980.795349 
	C1013.424622,981.865051 1010.631714,980.490112 1007.198059,977.748596 
	C997.871094,970.301636 988.162415,963.296265 978.273376,956.606079 
	C973.651123,953.478882 971.636475,954.523804 971.260925,960.234497 
	C970.541260,971.175842 969.721313,982.221008 970.483582,993.115295 
	C971.115845,1002.151550 970.358826,1010.274902 966.803345,1018.752136 
	C963.175537,1027.401611 960.937805,1036.756958 959.092896,1046.003174 
	C956.034729,1061.330200 963.523010,1073.561401 972.565552,1084.766602 
	C977.872009,1091.342041 984.037292,1097.270386 990.190857,1103.093994 
	C992.801697,1105.564941 993.623596,1107.644287 992.124756,1110.875732 
	C988.694519,1118.271240 985.162231,1125.633545 982.104370,1133.184692 
	C977.048706,1145.669067 972.212280,1158.246948 967.566467,1170.889404 
	C966.471191,1173.869995 965.181030,1175.202759 961.930054,1175.040894 
	C957.110779,1174.801147 952.213440,1174.521973 947.454224,1175.109253 
	C942.109375,1175.769043 939.673584,1173.222534 937.635315,1168.890747 
	C923.034607,1137.861450 908.932922,1106.636230 898.778687,1073.791260 
	C898.399902,1072.566284 897.699768,1071.440674 896.979004,1069.905762 
	C893.664429,1072.690918 890.744507,1075.338135 887.629089,1077.730713 
	C869.857056,1091.379028 846.224976,1092.955444 829.848022,1081.482422 
	C819.408997,1074.169312 814.032593,1063.645142 812.162720,1051.343140 
	C811.293091,1045.621826 811.434570,1039.746826 811.510864,1033.428955 
	C813.132202,1031.911011 814.547852,1031.061890 815.547058,1029.865112 
	C817.273071,1027.797729 818.669067,1028.239014 820.140991,1030.018921 
	C820.746582,1036.229248 820.855469,1042.536377 822.044983,1048.632812 
	C826.860107,1073.310913 848.831848,1085.219727 871.499939,1074.506226 
	C892.293640,1064.678467 905.961914,1048.317505 910.370789,1025.113647 
	C911.845276,1017.353333 909.408691,1010.225830 906.546570,1003.338440 
	C897.684753,982.013000 884.529541,963.448425 868.357300,947.136047 
	C864.301697,943.045349 858.397034,940.787720 853.103638,937.426208 
	C853.517029,934.793762 854.487549,932.457703 854.752319,930.044189 
	C855.253601,925.474792 857.466980,925.799500 860.399048,927.725220 
	C863.295837,929.627869 866.597717,931.195801 868.898010,933.675049 
	C878.024780,943.510986 889.518799,951.238647 895.598511,963.855164 
	C896.779114,966.305237 899.600403,967.964661 901.932068,970.381958 
	C906.581970,979.357361 910.964722,987.939514 915.833618,997.473572 
	C916.409363,995.564758 916.728394,994.824219 916.851624,994.052429 
	C922.994995,955.606018 951.594116,930.516541 991.561035,929.034729 
	C1005.080750,928.533447 1017.886719,931.718689 1030.214600,937.076050 
z"/>
<path fill="#232B48" opacity="1.000000" stroke="none" 
	d="
M653.213745,1386.541870 
	C654.605469,1392.254028 655.904846,1397.564575 657.527771,1404.197266 
	C660.210571,1393.534180 662.430359,1384.069946 664.981140,1374.695801 
	C672.098450,1348.539429 679.411194,1322.436279 686.477844,1296.266357 
	C687.340332,1293.072388 688.736511,1292.106323 691.960815,1292.168213 
	C702.381958,1292.368042 712.809265,1292.242798 723.897156,1292.242798 
	C721.051086,1301.487793 718.520142,1310.050171 715.781982,1318.545898 
	C702.823853,1358.752563 689.763306,1398.926392 676.889893,1439.160034 
	C675.686584,1442.920776 674.096619,1444.412476 669.939392,1444.211670 
	C661.629578,1443.810181 653.272339,1443.809448 644.962524,1444.214233 
	C640.248535,1444.443848 638.159851,1443.111694 636.749817,1438.355347 
	C627.678101,1407.754761 618.280518,1377.250000 608.869141,1346.751221 
	C603.336609,1328.822388 597.581360,1310.962280 591.638245,1292.159790 
	C600.393250,1292.159790 608.445496,1292.168091 616.497742,1292.157837 
	C628.066101,1292.143066 628.102051,1292.127686 631.051941,1303.185059 
	C638.427490,1330.831665 645.767212,1358.487915 653.213745,1386.541870 
z"/>
<path fill="#232B48" opacity="1.000000" stroke="none" 
	d="
M795.830078,1444.792725 
	C784.988098,1444.802124 774.271851,1446.243530 764.188965,1444.336426 
	C741.536926,1440.051880 727.736755,1423.604492 725.079163,1400.232788 
	C723.692871,1388.041504 724.130066,1375.966675 727.891418,1364.143799 
	C734.113586,1344.586060 747.796814,1333.687500 767.765137,1331.356689 
	C775.876221,1330.409790 784.557983,1330.862671 792.509033,1332.708130 
	C813.677795,1337.621094 826.931274,1354.901855 828.911499,1378.632080 
	C829.339783,1383.764893 829.046143,1388.954346 829.213318,1394.113647 
	C829.335144,1397.873047 827.934204,1399.231079 823.939636,1399.201172 
	C804.110107,1399.052490 784.278137,1399.216064 764.447144,1399.305908 
	C762.320984,1399.315552 760.195923,1399.560303 758.092651,1399.694458 
	C758.274841,1409.500977 763.623596,1416.139771 772.969116,1417.975830 
	C786.183594,1420.571899 798.464294,1418.301514 809.580688,1410.077271 
	C814.645935,1416.317871 819.715210,1422.563354 825.023987,1429.104004 
	C817.195312,1437.446045 807.264832,1442.054199 795.830078,1444.792725 
M795.651672,1372.153442 
	C792.629517,1361.013550 785.663147,1356.090942 774.504639,1357.210571 
	C764.256775,1358.238770 758.528503,1365.134888 757.594421,1377.629395 
	C770.325806,1377.629395 783.050415,1377.629395 796.098572,1377.629395 
	C795.992798,1375.900024 795.903687,1374.442871 795.651672,1372.153442 
z"/>
<path fill="#232B48" opacity="1.000000" stroke="none" 
	d="
M887.393555,1408.991943 
	C889.279724,1415.653320 891.653442,1417.730225 897.940125,1418.135010 
	C901.073120,1418.336548 904.229858,1418.169922 907.801758,1418.169922 
	C907.801758,1425.889771 907.901733,1433.651367 907.671692,1441.403198 
	C907.643860,1442.341675 905.971130,1443.765747 904.830627,1444.054077 
	C893.363220,1446.951782 882.041809,1446.582764 871.153442,1441.621582 
	C860.905518,1436.951904 855.550659,1428.395996 855.027405,1417.592651 
	C854.182251,1400.145020 854.337708,1382.648804 854.078857,1365.173096 
	C854.049927,1363.219604 854.074890,1361.265381 854.074890,1358.866943 
	C848.686462,1358.866943 843.754089,1358.866943 838.478882,1358.866943 
	C838.478882,1350.213745 838.478882,1342.008789 838.478882,1333.352783 
	C843.572388,1333.352783 848.495361,1333.352783 853.841736,1333.352783 
	C853.841736,1323.506958 853.841736,1314.091553 853.841736,1304.275024 
	C864.963135,1304.275024 875.662231,1304.275024 886.871033,1304.275024 
	C886.871033,1313.728394 886.871033,1323.120728 886.871033,1332.938232 
	C894.285156,1332.938232 901.209290,1332.938232 908.434570,1332.938232 
	C908.434570,1341.466431 908.434570,1349.563477 908.434570,1358.219482 
	C901.524963,1358.219482 894.581238,1358.219482 887.303284,1358.219482 
	C887.303284,1375.372314 887.303284,1391.973633 887.393555,1408.991943 
z"/>
<path fill="#8FC195" opacity="1.000000" stroke="none" 
	d="
M1466.276001,1428.289062 
	C1459.780518,1436.627563 1451.061401,1441.546143 1441.435059,1442.446289 
	C1423.979126,1444.078857 1406.360840,1443.974854 1388.395020,1444.610352 
	C1388.395020,1400.583984 1388.395020,1357.748779 1388.395020,1313.550171 
	C1406.443359,1314.390991 1424.216187,1314.514526 1441.823120,1316.287231 
	C1453.521851,1317.465088 1462.654175,1324.426636 1469.390991,1334.288086 
	C1474.536865,1341.820557 1477.330688,1350.277466 1477.375732,1359.129761 
	C1477.457520,1375.220215 1477.401611,1391.414917 1475.608032,1407.364258 
	C1474.806152,1414.495605 1469.662842,1421.138672 1466.276001,1428.289062 
M1402.735840,1332.682007 
	C1402.735840,1365.397583 1402.735840,1398.113159 1402.735840,1431.120972 
	C1413.149414,1431.120972 1422.469360,1431.252808 1431.784180,1431.091431 
	C1447.648315,1430.816895 1460.576416,1420.354736 1461.705811,1404.628174 
	C1462.915649,1387.779419 1462.864258,1370.715942 1461.711548,1353.859131 
	C1460.722778,1339.400513 1448.918579,1328.791138 1434.961426,1328.046875 
	C1424.554810,1327.491943 1414.094727,1327.937500 1403.098877,1327.937500 
	C1403.006714,1328.891357 1402.869385,1330.313965 1402.735840,1332.682007 
z"/>
<path fill="#8EC095" opacity="1.000000" stroke="none" 
	d="
M1237.873901,1377.000000 
	C1237.242188,1388.778564 1237.846436,1400.295288 1235.727905,1411.287231 
	C1230.931641,1436.172241 1210.890747,1448.338379 1185.303467,1446.113403 
	C1170.542236,1444.830078 1157.987305,1439.153076 1150.641235,1425.787354 
	C1147.364502,1419.825562 1144.746826,1412.757690 1144.417236,1406.064331 
	C1143.550415,1388.464111 1143.506592,1370.769043 1144.243408,1353.158203 
	C1145.137451,1331.788818 1159.778198,1316.678101 1181.854004,1312.766968 
	C1204.088867,1308.827637 1225.037842,1319.015869 1233.405029,1338.670166 
	C1235.952393,1344.653442 1236.894653,1351.474609 1237.655273,1358.018677 
	C1238.362793,1364.105347 1237.849487,1370.333862 1237.873901,1377.000000 
M1220.274414,1414.539551 
	C1220.875854,1412.300049 1221.950806,1410.071655 1222.003540,1407.819336 
	C1222.415161,1390.187866 1223.635376,1372.493896 1222.622070,1354.933716 
	C1221.625977,1337.673096 1209.829346,1324.853149 1189.621704,1325.654663 
	C1171.747070,1326.363647 1159.986206,1336.959595 1159.036865,1355.852783 
	C1158.244995,1371.609497 1158.371216,1387.455200 1158.979004,1403.227173 
	C1159.588379,1419.041870 1169.317261,1430.864746 1183.167114,1432.750610 
	C1197.887573,1434.755371 1211.702026,1433.481079 1220.274414,1414.539551 
z"/>
<path fill="#8EC095" opacity="1.000000" stroke="none" 
	d="
M931.960571,1342.959473 
	C936.306519,1320.354248 951.928406,1306.939209 974.415894,1306.056030 
	C987.389343,1305.546387 999.723511,1307.464233 1010.252686,1315.760742 
	C1020.639832,1323.945190 1024.810791,1335.299072 1025.810425,1348.019775 
	C1025.896606,1349.115479 1024.076416,1351.260864 1022.967896,1351.386841 
	C1019.216187,1351.812744 1015.386169,1351.549194 1013.332825,1351.549194 
	C1009.756104,1343.625122 1007.821228,1335.885498 1003.338440,1330.130615 
	C994.190247,1318.386230 980.897339,1317.812134 967.750427,1321.337769 
	C955.667847,1324.577881 947.891418,1333.649414 947.210693,1345.826538 
	C946.080505,1366.042847 945.395325,1386.508789 947.277222,1406.611816 
	C949.602661,1431.453125 980.532776,1443.583252 1000.670776,1428.609131 
	C1006.925720,1423.958008 1010.543335,1417.255005 1011.066467,1409.405273 
	C1011.337341,1405.340820 1012.663147,1403.726929 1016.758911,1404.151123 
	C1019.534424,1404.438721 1022.363892,1404.206055 1025.056152,1404.206055 
	C1027.791138,1414.444092 1020.905151,1430.652710 1011.098328,1437.723999 
	C992.593628,1451.066772 963.724487,1450.512207 946.156006,1436.049927 
	C936.153076,1427.815796 931.840576,1416.232666 931.372742,1403.800781 
	C930.665222,1384.996460 931.182007,1366.145630 931.230530,1347.314697 
	C931.233887,1346.004883 931.666504,1344.696045 931.960571,1342.959473 
z"/>
<path fill="#8FC195" opacity="1.000000" stroke="none" 
	d="
M1284.756592,1439.250000 
	C1271.986328,1431.054932 1267.450439,1418.795044 1267.275757,1404.884155 
	C1266.915894,1376.227783 1267.203369,1347.563843 1267.088501,1318.903564 
	C1267.074463,1315.435059 1268.170288,1314.170166 1271.665894,1314.265625 
	C1283.370361,1314.584839 1281.557251,1312.870483 1281.607910,1323.924316 
	C1281.729004,1350.418335 1281.696045,1376.913208 1281.805176,1403.407349 
	C1281.835938,1410.885010 1283.430786,1417.992676 1288.242188,1423.977539 
	C1294.714233,1432.028198 1303.700073,1433.823975 1313.350952,1433.589111 
	C1316.327148,1433.516724 1319.380371,1433.262817 1322.243896,1432.507080 
	C1334.027100,1429.396484 1340.930542,1420.513306 1341.057495,1407.379150 
	C1341.337769,1378.387573 1341.361572,1349.391968 1341.202759,1320.399536 
	C1341.176392,1315.590454 1342.459717,1313.614868 1347.321289,1314.319946 
	C1348.951660,1314.556519 1350.848022,1313.864502 1352.258301,1314.459961 
	C1353.672852,1315.057373 1355.637451,1316.724976 1355.645142,1317.934326 
	C1355.836914,1348.259766 1356.336792,1378.599487 1355.616089,1408.908936 
	C1355.145874,1428.690674 1340.816650,1442.917603 1320.651978,1445.821411 
	C1308.111938,1447.627197 1296.104126,1446.160034 1284.756592,1439.250000 
z"/>
<path fill="#8FC195" opacity="1.000000" stroke="none" 
	d="
M1067.850586,1388.000000 
	C1067.850464,1402.458740 1067.850464,1416.417480 1067.850464,1430.873169 
	C1070.101685,1430.999023 1071.863892,1431.180176 1073.626343,1431.183350 
	C1090.781006,1431.214355 1107.937500,1431.354004 1125.089111,1431.130005 
	C1129.468750,1431.072876 1130.921997,1432.302246 1130.754761,1436.752930 
	C1130.461548,1444.555908 1130.716797,1444.618164 1122.924438,1444.563232 
	C1100.950073,1444.408325 1078.976074,1444.208740 1057.002075,1444.013062 
	C1056.015625,1444.004272 1055.030396,1443.860840 1053.586914,1443.742798 
	C1053.586914,1400.804810 1053.586914,1357.946411 1053.586914,1314.423950 
	C1057.342529,1314.423950 1061.122559,1314.410400 1064.902344,1314.427979 
	C1068.257446,1314.443604 1067.823486,1316.905640 1067.825195,1319.047363 
	C1067.835815,1331.871826 1067.835327,1344.696167 1067.839355,1357.520630 
	C1067.842407,1367.513794 1067.846924,1377.506836 1067.850586,1388.000000 
z"/>
<path fill="#7EC2D9" opacity="1.000000" stroke="none" 
	d="
M1164.234375,1104.283447 
	C1167.411255,1101.776489 1170.801147,1099.538574 1174.495117,1097.151611 
	C1181.957275,1099.458130 1188.965942,1102.561035 1196.300171,1104.250732 
	C1220.884399,1109.914673 1245.645996,1111.347778 1270.375610,1105.027100 
	C1284.673340,1101.372681 1297.907349,1095.557983 1306.656494,1082.916016 
	C1314.893677,1071.013550 1317.948120,1058.151367 1311.660645,1044.259644 
	C1310.373657,1041.415771 1308.713989,1038.430420 1312.547729,1036.571533 
	C1316.502930,1034.653564 1319.318848,1036.802490 1320.998535,1040.364990 
	C1325.905396,1050.773071 1326.211182,1061.575806 1323.116821,1072.488525 
	C1317.452026,1092.466797 1303.141602,1104.365845 1284.741211,1111.638550 
	C1263.500854,1120.033813 1241.172852,1120.132080 1218.796143,1118.263916 
	C1201.974854,1116.859619 1185.620728,1113.242188 1169.886230,1107.031982 
	C1168.035400,1106.301636 1166.258667,1105.383545 1164.234375,1104.283447 
z"/>
<path fill="#7EC2D9" opacity="1.000000" stroke="none" 
	d="
M1248.046997,1167.522217 
	C1247.264648,1167.648071 1246.482178,1167.773926 1245.218506,1167.745361 
	C1244.508789,1167.781494 1244.280396,1167.972046 1244.051880,1168.162598 
	C1243.366455,1168.452026 1242.681030,1168.741455 1241.197388,1169.033447 
	C1235.749634,1167.966187 1234.643555,1163.833374 1237.134888,1158.614258 
	C1239.035522,1154.632568 1240.903809,1150.491577 1241.815552,1146.214478 
	C1243.244141,1139.512207 1243.393433,1139.304077 1250.415405,1140.553833 
	C1254.167847,1141.221924 1258.083130,1140.975708 1261.924927,1141.142090 
	C1262.703735,1141.133667 1263.482422,1141.125122 1264.704834,1141.599609 
	C1265.416748,1149.332642 1265.762695,1156.581909 1265.830688,1163.833618 
	C1265.837402,1164.546021 1264.204712,1165.760986 1263.216431,1165.897217 
	C1260.937256,1166.211060 1258.565796,1165.813232 1256.269775,1166.058960 
	C1253.508301,1166.354614 1250.786133,1167.018066 1248.046997,1167.522217 
z"/>
<path fill="#7EC2D9" opacity="1.000000" stroke="none" 
	d="
M816.864136,995.531128 
	C816.844055,995.184875 816.823975,994.838623 817.046509,994.171997 
	C817.367004,993.758606 817.529175,993.614441 817.509033,993.581238 
	C817.391174,993.387268 817.230591,993.219238 817.084473,993.042480 
	C821.960754,977.759521 826.698975,962.429932 831.821167,947.229797 
	C832.949463,943.881409 835.611267,941.290588 841.060242,942.713135 
	C840.606689,945.760254 840.555298,949.011047 839.604919,951.973389 
	C836.008728,963.183289 832.120911,974.299622 827.888306,985.902588 
	C827.328491,986.706238 827.222473,987.058167 827.116455,987.410156 
	C827.119995,987.776245 827.123596,988.142395 826.767090,988.981567 
	C822.637329,996.342834 822.679199,1005.161743 815.077637,1010.393555 
	C815.673157,1005.439453 816.268677,1000.485291 816.864136,995.531128 
z"/>
<path fill="#8CC0BA" opacity="1.000000" stroke="none" 
	d="
M816.585571,995.811401 
	C816.268677,1000.485291 815.673157,1005.439453 815.077637,1010.393555 
	C822.679199,1005.161743 822.637329,996.342834 826.688354,989.246582 
	C825.173767,999.373596 823.333740,1009.701233 821.608948,1020.048096 
	C821.096558,1023.122192 820.908447,1026.250366 820.356323,1029.686279 
	C818.669067,1028.239014 817.273071,1027.797729 815.547058,1029.865112 
	C814.547852,1031.061890 813.132202,1031.911011 811.582642,1032.971680 
	C812.943237,1020.715210 814.625122,1008.403381 816.585571,995.811401 
z"/>
<path fill="#7EC2D9" opacity="1.000000" stroke="none" 
	d="
M769.769653,993.568848 
	C767.612976,991.030334 764.880432,988.869202 764.231445,986.201355 
	C763.000488,981.140503 766.445251,976.887268 771.039185,976.426636 
	C775.658447,975.963440 780.517273,980.280884 780.810425,985.109070 
	C781.090393,989.720032 777.520874,993.567688 772.612061,993.888000 
	C771.793396,993.941406 770.960815,993.779663 769.769653,993.568848 
z"/>
<path fill="#8CC0BA" opacity="1.000000" stroke="none" 
	d="
M1261.536377,1141.047607 
	C1258.083130,1140.975708 1254.167847,1141.221924 1250.415405,1140.553833 
	C1243.393433,1139.304077 1243.244141,1139.512207 1241.815552,1146.214478 
	C1240.903809,1150.491577 1239.035522,1154.632568 1237.134888,1158.614258 
	C1234.643555,1163.833374 1235.749634,1167.966187 1240.822388,1169.069336 
	C1237.754761,1174.278442 1232.832520,1175.906982 1226.406982,1174.818848 
	C1228.929932,1168.911743 1231.704712,1162.988281 1234.917114,1157.312500 
	C1238.358398,1151.231934 1240.085693,1144.820679 1240.012207,1137.435547 
	C1247.057129,1138.313354 1254.102417,1139.633179 1261.536377,1141.047607 
z"/>
<path fill="#7EC2D9" opacity="1.000000" stroke="none" 
	d="
M1328.975586,979.982178 
	C1332.145264,974.941956 1335.777832,973.930603 1339.807617,976.631897 
	C1343.284302,978.962463 1344.382446,983.358582 1342.302612,986.621155 
	C1340.164917,989.974915 1334.684082,991.378723 1331.873901,988.465332 
	C1330.040039,986.564148 1329.821655,983.104675 1328.975586,979.982178 
z"/>
<path fill="#8CC0BA" opacity="1.000000" stroke="none" 
	d="
M1248.497437,1167.639404 
	C1250.786133,1167.018066 1253.508301,1166.354614 1256.269775,1166.058960 
	C1258.565796,1165.813232 1260.937256,1166.211060 1263.216431,1165.897217 
	C1264.204712,1165.760986 1265.837402,1164.546021 1265.830688,1163.833618 
	C1265.762695,1156.581909 1265.416748,1149.332642 1265.083618,1141.697510 
	C1265.970703,1142.525024 1267.688477,1143.703491 1267.744507,1144.956299 
	C1268.010986,1150.915283 1267.751831,1156.895386 1267.827759,1162.866089 
	C1267.872070,1166.352051 1265.948120,1167.590576 1262.879028,1167.648071 
	C1258.236206,1167.734985 1253.591675,1167.725098 1248.497437,1167.639404 
z"/>
<path fill="#8CC0BA" opacity="1.000000" stroke="none" 
	d="
M1244.218384,1168.246094 
	C1244.280396,1167.972046 1244.508789,1167.781494 1244.820801,1167.711670 
	C1244.828369,1168.099976 1244.655273,1168.265625 1244.218384,1168.246094 
z"/>
<path fill="#8CC0BA" opacity="1.000000" stroke="none" 
	d="
M817.014709,993.273193 
	C817.230591,993.219238 817.391174,993.387268 817.509033,993.581238 
	C817.529175,993.614441 817.367004,993.758606 817.116272,993.918762 
	C816.943481,993.985962 816.945007,993.503906 817.014709,993.273193 
z"/>
<path fill="#8CC0BA" opacity="1.000000" stroke="none" 
	d="
M827.325317,987.224487 
	C827.222473,987.058167 827.328491,986.706238 827.647827,986.177490 
	C827.752197,986.346802 827.643127,986.692871 827.325317,987.224487 
z"/>
<path fill="#FCFEFE" opacity="1.000000" stroke="none" 
	d="
M1021.602295,758.472412 
	C1029.759399,772.953064 1032.654053,788.496582 1035.242676,804.349121 
	C1037.508789,818.226257 1033.003296,830.015076 1028.053223,842.314636 
	C1022.110535,857.080078 1017.627075,872.427124 1011.920166,887.295288 
	C1008.596497,895.954346 1003.725037,903.930725 993.618896,906.150269 
	C989.949402,906.956177 985.754517,907.687134 982.302002,906.697937 
	C974.261108,904.394165 966.613159,905.764954 958.737122,907.045654 
	C946.866821,908.975769 938.516907,904.791016 932.711121,894.153687 
	C930.575256,890.240356 929.010620,885.987305 927.458801,881.788208 
	C922.280029,867.775024 917.926147,853.407349 911.916931,839.765442 
	C906.394653,827.228943 904.810364,814.767029 906.927856,801.411682 
	C909.332642,786.244446 912.332214,771.324890 920.075012,757.799805 
	C926.143066,747.200195 934.373230,739.799438 947.039124,737.763611 
	C961.787598,735.393066 976.417603,735.061829 991.164246,737.525146 
	C1004.497253,739.752441 1014.525635,746.595276 1021.602295,758.472412 
M966.676147,858.976807 
	C962.968201,859.712891 959.060486,859.940186 955.597656,861.300293 
	C949.934143,863.524780 947.988342,868.700012 950.254517,874.358521 
	C953.557678,882.606262 960.006348,887.539001 968.502197,888.815491 
	C977.323853,890.140930 983.689758,885.202454 988.466675,878.236755 
	C993.881470,870.341003 991.180542,862.558594 981.908875,860.287109 
	C977.314697,859.161499 972.394836,859.365479 966.676147,858.976807 
M995.839417,813.762756 
	C997.220276,817.968811 1000.063171,820.085022 1004.489014,819.192017 
	C1008.542236,818.374329 1010.171387,815.400513 1010.005676,811.473083 
	C1009.834656,807.420227 1006.313049,804.148560 1002.496338,804.268127 
	C998.745178,804.385681 996.043030,807.843628 995.839417,813.762756 
M940.073975,804.188904 
	C936.054321,803.432617 933.430786,805.739868 932.380676,808.964783 
	C931.672119,811.140686 931.904297,814.655518 933.268433,816.199036 
	C934.796875,817.928528 938.352173,819.203003 940.516296,818.657043 
	C942.658691,818.116516 945.094421,815.325562 945.745850,813.048096 
	C946.865479,809.134155 944.715515,806.032593 940.073975,804.188904 
z"/>
<path fill="#FCFEFE" opacity="1.000000" stroke="none" 
	d="
M1210.322510,1061.090088 
	C1208.073853,1047.931152 1201.050903,1037.264648 1192.192871,1027.859009 
	C1185.957520,1021.238281 1179.209229,1014.911133 1171.879028,1009.564697 
	C1164.706177,1004.333069 1156.506104,1000.509827 1148.719849,996.047180 
	C1149.465454,990.075989 1150.946411,983.569519 1150.967285,977.058350 
	C1151.033203,956.522400 1143.557495,938.844360 1129.378662,924.001892 
	C1127.198608,921.719788 1124.970215,919.483948 1122.468994,917.091797 
	C1118.745239,910.521729 1115.044922,904.212036 1111.995361,897.602051 
	C1110.309082,893.946838 1109.712769,889.788757 1108.495239,885.387756 
	C1119.582520,884.194946 1129.604614,885.135071 1139.511475,887.394409 
	C1144.043091,888.427917 1148.642090,889.519287 1152.891357,891.332581 
	C1156.767334,892.986450 1160.018188,892.654175 1163.826538,891.211121 
	C1179.938477,885.105713 1195.939209,884.312622 1211.425659,893.330811 
	C1221.053833,898.937500 1231.534668,898.941162 1241.995239,897.390625 
	C1246.838623,896.672546 1248.838257,898.234131 1249.629150,902.560303 
	C1249.897949,904.030884 1250.166260,905.502075 1250.467285,906.966309 
	C1252.833618,918.477112 1251.629883,920.749695 1240.734253,925.033386 
	C1238.052002,926.087952 1235.307861,926.985291 1232.755493,929.084045 
	C1235.141968,929.084045 1237.528564,929.084045 1239.915039,929.084045 
	C1242.234375,929.084045 1244.553833,929.084045 1247.191528,929.084045 
	C1246.322998,934.097168 1242.715698,936.284302 1238.983643,938.434082 
	C1233.225586,941.751038 1227.234253,944.760681 1221.851074,948.612427 
	C1207.226562,959.076294 1203.654175,974.097900 1205.467529,991.008789 
	C1207.489990,1009.868591 1215.149658,1026.879517 1223.313599,1043.652832 
	C1225.049072,1047.218384 1224.655029,1049.343262 1221.686279,1051.666626 
	C1217.896729,1054.632202 1214.324951,1057.876221 1210.322510,1061.090088 
M1202.885010,906.665100 
	C1201.991577,905.309509 1201.379883,903.255615 1200.141113,902.755981 
	C1198.095337,901.930725 1195.238647,901.270386 1193.488525,902.118591 
	C1191.979004,902.850159 1190.384644,906.200562 1190.907959,907.633789 
	C1191.581543,909.479065 1194.146606,911.282166 1196.227417,911.816162 
	C1199.485474,912.652222 1201.903687,910.767578 1202.885010,906.665100 
z"/>
<path fill="#FAFEFE" opacity="1.000000" stroke="none" 
	d="
M859.769836,784.770447 
	C871.921448,773.607544 883.719604,762.579041 895.765442,751.827942 
	C902.370850,745.932495 910.424866,743.105347 919.956604,742.017883 
	C903.126282,761.883728 899.403015,785.396179 896.772705,809.398438 
	C895.327881,822.583313 893.082703,835.688110 890.896729,848.778625 
	C890.360718,851.988159 888.949646,855.163330 887.407410,858.071289 
	C883.388977,865.648193 877.051514,866.268799 871.560913,859.585266 
	C867.870667,855.093079 863.884705,850.619507 861.289978,845.499573 
	C856.199951,835.455811 851.662354,825.096069 847.512756,814.622742 
	C843.942200,805.611023 846.566406,797.670715 853.562683,791.081360 
	C855.623291,789.140686 857.538147,787.045166 859.769836,784.770447 
z"/>
<path fill="#FAFEFE" opacity="1.000000" stroke="none" 
	d="
M1043.160156,750.807739 
	C1059.039551,765.491943 1074.699341,779.888489 1090.176270,794.479004 
	C1095.669189,799.657104 1096.469604,806.351929 1094.628784,813.384338 
	C1090.221802,830.219849 1082.265259,845.326172 1071.386719,858.800415 
	C1064.922119,866.807495 1058.034546,866.506348 1054.114136,857.004700 
	C1050.327515,847.827087 1048.380371,837.631714 1047.188965,827.695923 
	C1044.720093,807.104004 1044.328613,786.143616 1035.995605,766.720520 
	C1032.500732,758.574341 1027.784180,750.952209 1023.589783,743.029175 
	C1030.451538,743.242493 1036.758667,746.641846 1043.160156,750.807739 
z"/>
<path fill="#F9FEFC" opacity="1.000000" stroke="none" 
	d="
M1030.153076,936.661743 
	C1017.886719,931.718689 1005.080750,928.533447 991.561035,929.034729 
	C951.594116,930.516541 922.994995,955.606018 916.851624,994.052429 
	C916.728394,994.824219 916.409363,995.564758 915.833618,997.473572 
	C910.964722,987.939514 906.581970,979.357361 902.305176,970.415649 
	C906.633972,956.096252 911.112915,942.207214 914.995972,928.153564 
	C917.935730,917.513794 920.115295,906.663940 922.669983,895.750183 
	C925.045349,898.976990 927.162659,902.305908 929.722839,905.249512 
	C938.734802,915.611145 950.080994,918.667847 963.482544,916.392212 
	C968.903992,915.471619 974.699768,915.467346 980.150940,916.253723 
	C995.825684,918.514832 1007.270020,912.322571 1015.885742,899.732788 
	C1017.372375,897.560486 1018.592834,895.205933 1020.088867,892.677490 
	C1023.474304,907.423828 1026.782959,921.835693 1030.153076,936.661743 
z"/>
<path fill="#F9FEFC" opacity="1.000000" stroke="none" 
	d="
M795.733154,1372.569580 
	C795.903687,1374.442871 795.992798,1375.900024 796.098572,1377.629395 
	C783.050415,1377.629395 770.325806,1377.629395 757.594421,1377.629395 
	C758.528503,1365.134888 764.256775,1358.238770 774.504639,1357.210571 
	C785.663147,1356.090942 792.629517,1361.013550 795.733154,1372.569580 
z"/>
<path fill="#FDFFFD" opacity="1.000000" stroke="none" 
	d="
M1402.733887,1332.209229 
	C1402.869385,1330.313965 1403.006714,1328.891357 1403.098877,1327.937500 
	C1414.094727,1327.937500 1424.554810,1327.491943 1434.961426,1328.046875 
	C1448.918579,1328.791138 1460.722778,1339.400513 1461.711548,1353.859131 
	C1462.864258,1370.715942 1462.915649,1387.779419 1461.705811,1404.628174 
	C1460.576416,1420.354736 1447.648315,1430.816895 1431.784180,1431.091431 
	C1422.469360,1431.252808 1413.149414,1431.120972 1402.735840,1431.120972 
	C1402.735840,1398.113159 1402.735840,1365.397583 1402.733887,1332.209229 
z"/>
<path fill="#FDFFFD" opacity="1.000000" stroke="none" 
	d="
M1220.131714,1414.899170 
	C1211.702026,1433.481079 1197.887573,1434.755371 1183.167114,1432.750610 
	C1169.317261,1430.864746 1159.588379,1419.041870 1158.979004,1403.227173 
	C1158.371216,1387.455200 1158.244995,1371.609497 1159.036865,1355.852783 
	C1159.986206,1336.959595 1171.747070,1326.363647 1189.621704,1325.654663 
	C1209.829346,1324.853149 1221.625977,1337.673096 1222.622070,1354.933716 
	C1223.635376,1372.493896 1222.415161,1390.187866 1222.003540,1407.819336 
	C1221.950806,1410.071655 1220.875854,1412.300049 1220.131714,1414.899170 
z"/>
<path fill="#74C4DE" opacity="1.000000" stroke="none" 
	d="
M967.149231,858.972412 
	C972.394836,859.365479 977.314697,859.161499 981.908875,860.287109 
	C991.180542,862.558594 993.881470,870.341003 988.466675,878.236755 
	C983.689758,885.202454 977.323853,890.140930 968.502197,888.815491 
	C960.006348,887.539001 953.557678,882.606262 950.254517,874.358521 
	C947.988342,868.700012 949.934143,863.524780 955.597656,861.300293 
	C959.060486,859.940186 962.968201,859.712891 967.149231,858.972412 
z"/>
<path fill="#7EC2D9" opacity="1.000000" stroke="none" 
	d="
M995.731323,813.413208 
	C996.043030,807.843628 998.745178,804.385681 1002.496338,804.268127 
	C1006.313049,804.148560 1009.834656,807.420227 1010.005676,811.473083 
	C1010.171387,815.400513 1008.542236,818.374329 1004.489014,819.192017 
	C1000.063171,820.085022 997.220276,817.968811 995.731323,813.413208 
z"/>
<path fill="#7EC2D9" opacity="1.000000" stroke="none" 
	d="
M940.438354,804.322632 
	C944.715515,806.032593 946.865479,809.134155 945.745850,813.048096 
	C945.094421,815.325562 942.658691,818.116516 940.516296,818.657043 
	C938.352173,819.203003 934.796875,817.928528 933.268433,816.199036 
	C931.904297,814.655518 931.672119,811.140686 932.380676,808.964783 
	C933.430786,805.739868 936.054321,803.432617 940.438354,804.322632 
z"/>
<path fill="#7EC2D9" opacity="1.000000" stroke="none" 
	d="
M1202.891357,907.041138 
	C1201.903687,910.767578 1199.485474,912.652222 1196.227417,911.816162 
	C1194.146606,911.282166 1191.581543,909.479065 1190.907959,907.633789 
	C1190.384644,906.200562 1191.979004,902.850159 1193.488525,902.118591 
	C1195.238647,901.270386 1198.095337,901.930725 1200.141113,902.755981 
	C1201.379883,903.255615 1201.991577,905.309509 1202.891357,907.041138 
z"/>
</svg>