<svg version="1.1" id="Layer_1" xmlns="http://www.w3.org/2000/svg" xmlns:xlink="http://www.w3.org/1999/xlink" x="0px" y="0px"
	 width="100%" viewBox="0 0 559 526" enable-background="new 0 0 559 526" xml:space="preserve">
<path fill="#FEFFFF" opacity="1.000000" stroke="none" 
	d="
M373.000000,527.000000 
	C248.695175,527.000000 124.890358,527.000000 1.042769,527.000000 
	C1.042769,351.735565 1.042769,176.471100 1.042769,1.103326 
	C187.221481,1.103326 373.443054,1.103326 559.832275,1.103326 
	C559.832275,176.333206 559.832275,351.666595 559.832275,527.000000 
	C497.804413,527.000000 435.652191,527.000000 373.000000,527.000000 
M197.511810,237.448105 
	C199.121658,230.028641 202.921494,223.122223 202.940887,215.257233 
	C195.922729,222.479874 194.240723,231.702484 192.161758,241.513489 
	C191.559280,246.034973 190.956787,250.556473 190.206802,255.956223 
	C190.183716,257.622070 190.072678,259.292084 190.151306,260.953156 
	C190.838303,275.462708 200.241821,284.142212 213.929169,281.763794 
	C219.380432,280.816559 224.392365,277.341034 229.913940,274.878387 
	C230.328857,275.970764 230.973022,277.809418 231.718399,279.606110 
	C237.074234,292.515869 242.502655,305.395752 247.795410,318.331238 
	C249.980408,323.671326 254.551208,321.665985 258.162262,321.535797 
	C259.675842,321.481232 261.659943,319.132721 262.460571,317.383362 
	C265.434998,310.884155 267.613373,303.999939 270.853271,297.649384 
	C273.441864,292.575378 273.331238,289.124817 268.695099,285.234100 
	C257.685486,275.994598 254.904205,264.510315 260.947876,251.200485 
	C261.291718,250.443207 261.728180,249.690674 261.879578,248.890198 
	C262.361237,246.343338 262.995392,243.784439 263.087921,241.212845 
	C263.328033,234.539795 261.932159,227.739304 264.427582,220.796921 
	C266.286530,221.687195 267.733643,222.146866 268.908905,222.986893 
	C272.425446,225.500336 275.732330,228.319214 279.334076,230.696060 
	C280.963318,231.771225 283.074341,232.562637 285.004608,232.650208 
	C290.442108,232.896927 295.907837,232.883636 301.344238,232.610611 
	C303.446869,232.504990 305.769714,231.840286 307.521759,230.704498 
	C311.419647,228.177551 314.914825,225.035477 318.772461,222.438721 
	C322.661072,219.821121 323.972595,220.498184 324.075195,225.323441 
	C324.195404,230.976044 323.795868,236.637985 323.736389,242.297104 
	C323.717926,244.051590 323.688599,245.962494 324.315552,247.543503 
	C332.343262,267.787262 331.411591,272.574524 315.552765,288.073151 
	C313.457977,290.120331 313.357117,291.624390 314.552826,294.076477 
	C317.105042,299.310211 320.232239,304.496521 321.498901,310.071472 
	C323.578918,319.226288 328.059845,323.456177 337.574799,321.336121 
	C338.347473,321.163910 339.224731,321.531616 340.052399,321.525024 
	C354.030914,321.413574 368.009277,321.282532 382.479950,321.517578 
	C385.611389,320.372894 388.695099,318.436188 391.883972,318.243805 
	C399.134735,317.806458 398.806061,319.218109 399.071930,310.827301 
	C399.184723,307.266479 398.222504,305.724854 394.492645,305.772919 
	C392.066437,305.804199 389.630066,305.050751 386.622650,304.234863 
	C377.368958,300.878326 368.475403,296.931488 357.938232,298.627502 
	C351.205170,299.711273 344.068268,298.285828 337.112427,297.985321 
	C337.052765,297.452789 336.993103,296.920258 336.933411,296.387695 
	C341.936890,293.974060 346.940369,291.560394 352.409698,289.659485 
	C365.455017,295.801697 379.352539,296.932098 393.385620,295.742523 
	C404.985474,294.759247 415.615326,290.975830 422.061859,280.190216 
	C425.775116,273.977509 426.267456,267.276123 423.506104,260.579315 
	C423.047028,259.465973 421.016785,259.000458 419.712555,258.235565 
	C419.412781,259.353058 418.652344,260.577362 418.882965,261.571899 
	C421.888336,274.533569 417.102081,283.624054 404.506195,288.066498 
	C389.772614,293.262909 375.025696,291.662140 360.372101,287.589294 
	C359.347443,287.304504 358.623688,285.937103 358.419952,284.803131 
	C363.294159,281.155548 368.168365,277.507935 373.664551,273.655121 
	C375.860901,271.828857 378.057251,270.002563 380.784668,267.779846 
	C392.617004,259.039551 401.341797,248.036453 405.624237,233.773239 
	C405.906403,232.833450 406.480774,231.967224 406.997345,231.114105 
	C413.472382,220.420547 427.064362,216.204910 435.622345,223.672287 
	C441.422241,228.733154 446.936249,233.368744 454.351990,235.494720 
	C454.521667,235.543365 454.554169,236.070465 454.786499,236.802277 
	C452.160797,237.700119 449.548187,238.676224 446.884857,239.485229 
	C442.657593,240.769257 440.389984,243.398758 440.843018,247.950897 
	C441.072693,250.258636 441.234528,252.604752 441.789703,254.843582 
	C447.975372,279.787933 431.182617,303.501648 407.368256,306.145477 
	C406.237946,306.270966 404.460663,307.577087 404.340942,308.507843 
	C403.952484,311.527924 404.195740,314.629211 404.195740,316.995667 
	C409.134888,318.033539 413.146423,318.799530 417.116608,319.740204 
	C419.423523,320.286743 421.694031,321.779572 423.928192,321.678741 
	C428.886383,321.454987 433.905884,320.899353 438.734406,319.769714 
	C468.197021,312.877167 489.347473,288.955505 492.826721,258.887756 
	C496.175995,229.942810 480.987671,201.062180 454.390228,188.665497 
	C447.363922,185.390625 446.764160,180.958374 446.085022,175.043808 
	C440.984375,130.622665 394.989105,106.750801 355.740417,128.090347 
	C354.455536,128.788925 353.134918,129.421738 352.053741,129.971848 
	C327.534668,85.943535 291.440002,62.453396 240.869415,72.495323 
	C190.512299,82.494835 165.414490,117.294090 159.819473,167.726624 
	C158.829910,167.794449 157.374435,167.922745 155.916153,167.989944 
	C130.403671,169.165497 110.083778,180.304626 95.686066,201.137253 
	C75.598633,230.202576 78.928230,270.270905 102.896271,296.253479 
	C120.064888,314.865112 141.834656,322.276489 166.643265,321.613739 
	C169.390533,321.540375 173.446335,320.108765 174.544434,318.051971 
	C177.880859,311.802734 180.959061,305.137909 182.494415,298.267639 
	C185.023773,286.949646 180.045242,275.106873 166.557068,274.693176 
	C163.572327,274.601654 160.596085,274.252930 157.614029,274.050262 
	C152.306564,273.689453 146.973190,273.563049 141.694412,272.957275 
	C130.388092,271.659821 119.109070,254.739532 122.461952,243.824860 
	C122.968376,242.176300 125.588615,240.573624 127.522255,240.071854 
	C135.714478,237.946045 144.175537,236.737473 152.203354,234.153091 
	C155.600159,233.059586 159.276489,229.960037 160.886246,226.787979 
	C164.241852,220.175766 169.141251,216.166901 175.896820,213.809982 
	C186.768234,210.017105 197.762177,210.086655 209.331406,212.877655 
	C214.840363,217.981964 220.349304,223.086273 225.966385,228.880936 
	C228.063553,232.433334 230.436386,235.853897 232.209427,239.561310 
	C239.300400,254.388397 231.584717,271.473877 215.735840,276.382690 
	C206.624359,279.204773 198.416763,275.094025 195.925583,265.871399 
	C194.823502,261.791443 195.005066,257.364716 194.869141,252.273163 
	C195.598969,247.520767 196.328796,242.768387 197.511810,237.448105 
M138.105438,413.810760 
	C142.188324,401.068359 146.271194,388.325958 150.509140,375.099640 
	C145.466064,375.099640 141.302612,375.271606 137.161865,375.039093 
	C134.407166,374.884399 133.454361,376.039429 132.797394,378.535889 
	C129.621353,390.605103 126.250496,402.622955 122.959984,414.662109 
	C122.119278,417.738037 121.319725,420.825195 120.501266,423.907196 
	C120.214752,423.866974 119.928238,423.826752 119.641716,423.786560 
	C115.324989,407.651886 111.008255,391.517181 106.661736,375.271179 
	C101.068481,375.271179 95.782280,375.271179 90.233879,375.271179 
	C90.651520,376.918945 90.951775,378.370178 91.386864,379.779785 
	C96.834251,397.428680 102.311195,415.068420 107.759575,432.717010 
	C111.508003,444.859039 111.492859,444.782959 124.330948,444.695129 
	C127.080238,444.676331 128.440125,443.984100 129.286758,441.178528 
	C131.978134,432.259766 135.014587,423.445190 138.105438,413.810760 
M198.678055,418.494354 
	C198.592178,417.334595 198.550858,416.169556 198.413651,415.015900 
	C196.643112,400.127747 187.994476,392.354462 173.625702,392.719818 
	C159.785889,393.071747 151.538925,401.558044 150.762756,416.393036 
	C150.615723,419.203247 150.678955,422.060822 151.010345,424.853210 
	C152.224213,435.081757 158.316330,442.406738 168.072784,444.588989 
	C178.565170,446.935791 188.368561,445.576752 196.627777,437.696564 
	C194.102966,434.599915 191.914032,431.915253 189.744308,429.254150 
	C176.521347,435.929657 166.700699,433.819336 166.441757,424.012817 
	C176.901306,424.012817 187.355896,424.012817 198.143677,424.012817 
	C198.343246,422.284485 198.510742,420.833801 198.678055,418.494354 
M224.958649,388.459106 
	C224.958649,385.983734 224.958649,383.508362 224.958649,380.700623 
	C219.880966,380.700623 215.134048,380.700623 209.854645,380.700623 
	C209.854645,385.057617 209.854645,389.298462 209.854645,393.670441 
	C207.232132,393.837952 205.124741,393.972565 202.895630,394.114960 
	C202.895630,397.916443 202.895630,401.518036 202.895630,405.336975 
	C205.235672,405.522156 207.346573,405.689209 209.923691,405.893158 
	C209.923691,412.449646 209.790298,418.918274 209.975815,425.377716 
	C210.080048,429.006287 210.171295,432.784973 211.217880,436.205505 
	C213.370010,443.239319 222.192734,447.224426 231.316864,444.827301 
	C237.755051,443.135773 233.151016,437.235504 234.423538,433.466919 
	C234.450836,433.386047 234.242920,433.225800 234.144730,433.102570 
	C233.898270,433.465210 233.651794,433.827820 233.405334,434.190460 
	C230.664322,432.389679 225.825623,430.853363 225.559219,428.740570 
	C224.599823,421.131897 225.182297,413.328796 225.182297,405.200317 
	C228.706650,405.200317 231.656235,405.200317 234.548965,405.200317 
	C234.548965,401.202179 234.548965,397.627838 234.548965,393.675507 
	C231.258438,393.675507 228.307343,393.675507 225.171127,393.675507 
	C225.086685,392.003265 225.021164,390.705658 224.958649,388.459106 
M489.863831,437.300720 
	C491.369812,433.827454 493.877899,430.438416 494.178406,426.863831 
	C494.856628,418.795715 495.072906,410.574799 494.292511,402.530975 
	C493.553223,394.910980 488.965546,388.605011 481.369080,387.033661 
	C472.603668,385.220520 463.452881,385.270782 454.410767,384.506958 
	C454.410767,405.419769 454.410767,424.920807 454.410767,444.685181 
	C461.358215,444.685181 467.845703,445.005676 474.285522,444.589447 
	C480.004395,444.219757 485.381226,442.395630 489.863831,437.300720 
M342.183777,426.062988 
	C344.344147,439.500702 352.704102,446.633636 365.263641,445.755280 
	C377.519592,444.898224 384.846924,436.634369 385.074249,423.237122 
	C385.184509,416.740784 385.263000,410.233612 385.020050,403.743866 
	C384.616516,392.964691 376.764923,385.033142 365.988098,384.178772 
	C354.291138,383.251434 344.718109,389.389343 343.066467,400.261780 
	C341.827789,408.415924 342.391052,416.843872 342.183777,426.062988 
M278.084900,443.821960 
	C283.333588,441.252319 286.951508,437.263794 287.882050,431.423645 
	C288.140106,429.804016 287.470428,426.882751 286.425751,426.437653 
	C283.856903,425.343018 282.112183,426.523163 281.273346,429.767731 
	C279.307281,437.372284 275.313232,440.071106 267.484619,440.031189 
	C259.757141,439.991791 253.901688,436.681427 253.204529,429.564880 
	C252.177292,419.078796 252.234116,408.366089 253.114624,397.857605 
	C253.665390,391.284424 259.816467,387.827545 267.201752,387.858643 
	C274.212769,387.888153 279.161530,391.495667 280.943146,397.916840 
	C281.290314,399.168182 281.513275,400.454010 281.797272,401.740784 
	C284.123260,401.740784 286.196686,401.740784 288.273010,401.740784 
	C287.993561,389.337219 280.116333,381.627380 267.638458,381.214050 
	C255.150131,380.800446 245.802887,388.467010 245.191345,400.306305 
	C244.736938,409.103638 244.771622,417.962128 245.222061,426.760986 
	C245.760117,437.270966 253.742035,445.283600 264.149963,445.763855 
	C268.523407,445.965637 272.963959,444.713959 278.084900,443.821960 
M398.841644,414.499023 
	C398.867218,418.993225 398.784515,423.491211 398.942169,427.980774 
	C399.222931,435.975800 403.155823,441.407623 410.673828,444.260284 
	C422.248291,448.652100 440.383850,443.548920 439.160309,425.028290 
	C438.798950,419.558838 439.101746,414.045471 439.101318,408.552246 
	C439.100708,400.945587 439.101166,393.338898 439.101166,385.561951 
	C436.725555,385.561951 435.009918,385.561951 433.094208,385.561951 
	C432.993011,387.212280 432.861237,388.515167 432.841156,389.819794 
	C432.656647,401.795288 432.502686,413.771301 432.317169,425.746765 
	C432.174042,434.985931 428.658447,439.127319 420.386322,439.864624 
	C412.217957,440.592712 406.227142,436.157013 405.635162,427.277527 
	C404.839722,415.346222 405.213501,403.336823 405.092407,391.360870 
	C405.072968,389.437805 405.089691,387.514313 405.089691,385.181396 
	C402.581177,385.307648 400.866577,385.393951 398.842010,385.495850 
	C398.842010,395.212097 398.842010,404.355743 398.841644,414.499023 
M300.953033,434.469849 
	C300.953033,437.735565 300.953033,441.001282 300.953033,444.418823 
	C313.004761,444.418823 324.357788,444.418823 335.718445,444.418823 
	C335.718445,442.295685 335.718445,440.570465 335.718445,438.375946 
	C327.727020,438.375946 320.099060,438.193024 312.486267,438.453156 
	C308.683380,438.583099 307.622894,437.224792 307.729706,433.575043 
	C307.958160,425.767334 307.785370,417.947968 307.782074,410.133362 
	C307.778625,402.027710 307.781281,393.922058 307.781281,385.659393 
	C305.213318,385.659393 303.214142,385.659393 300.955292,385.659393 
	C300.955292,401.906891 300.955292,417.692078 300.953033,434.469849 
M168.703934,233.889023 
	C169.882248,235.533279 170.849335,237.451355 172.383316,238.634491 
	C172.780441,238.940811 175.580505,237.206085 176.116013,235.924026 
	C176.557053,234.868134 175.312820,231.875168 174.759918,231.860703 
	C172.842300,231.810455 170.900452,232.684647 168.703934,233.889023 
M433.242828,232.166702 
	C431.533783,231.701843 429.824707,231.236969 428.115662,230.772095 
	C427.787994,232.140945 426.985443,233.629700 427.290710,234.838760 
	C427.514130,235.723709 429.800323,237.030106 430.118164,236.785507 
	C431.476715,235.740097 432.445862,234.188644 433.242828,232.166702 
z"/>
<path fill="#74C4DE" opacity="1.000000" stroke="none" 
	d="
M208.868561,212.451126 
	C197.762177,210.086655 186.768234,210.017105 175.896820,213.809982 
	C169.141251,216.166901 164.241852,220.175766 160.886246,226.787979 
	C159.276489,229.960037 155.600159,233.059586 152.203354,234.153091 
	C144.175537,236.737473 135.714478,237.946045 127.522255,240.071854 
	C125.588615,240.573624 122.968376,242.176300 122.461952,243.824860 
	C119.109070,254.739532 130.388092,271.659821 141.694412,272.957275 
	C146.973190,273.563049 152.306564,273.689453 157.614029,274.050262 
	C160.596085,274.252930 163.572327,274.601654 166.557068,274.693176 
	C180.045242,275.106873 185.023773,286.949646 182.494415,298.267639 
	C180.959061,305.137909 177.880859,311.802734 174.544434,318.051971 
	C173.446335,320.108765 169.390533,321.540375 166.643265,321.613739 
	C141.834656,322.276489 120.064888,314.865112 102.896271,296.253479 
	C78.928230,270.270905 75.598633,230.202576 95.686066,201.137253 
	C110.083778,180.304626 130.403671,169.165497 155.916153,167.989944 
	C157.374435,167.922745 158.829910,167.794449 159.819473,167.726624 
	C165.414490,117.294090 190.512299,82.494835 240.869415,72.495323 
	C291.440002,62.453396 327.534668,85.943535 352.053741,129.971848 
	C353.134918,129.421738 354.455536,128.788925 355.740417,128.090347 
	C394.989105,106.750801 440.984375,130.622665 446.085022,175.043808 
	C446.764160,180.958374 447.363922,185.390625 454.390228,188.665497 
	C480.987671,201.062180 496.175995,229.942810 492.826721,258.887756 
	C489.347473,288.955505 468.197021,312.877167 438.734406,319.769714 
	C433.905884,320.899353 428.886383,321.454987 423.928192,321.678741 
	C421.694031,321.779572 419.423523,320.286743 417.116608,319.740204 
	C413.146423,318.799530 409.134888,318.033539 404.195740,316.995667 
	C404.195740,314.629211 403.952484,311.527924 404.340942,308.507843 
	C404.460663,307.577087 406.237946,306.270966 407.368256,306.145477 
	C431.182617,303.501648 447.975372,279.787933 441.789703,254.843582 
	C441.234528,252.604752 441.072693,250.258636 440.843018,247.950897 
	C440.389984,243.398758 442.657593,240.769257 446.884857,239.485229 
	C449.548187,238.676224 452.160797,237.700119 454.786499,236.802277 
	C454.554169,236.070465 454.521667,235.543365 454.351990,235.494720 
	C446.936249,233.368744 441.422241,228.733154 435.622345,223.672287 
	C427.064362,216.204910 413.472382,220.420547 406.997345,231.114105 
	C406.480774,231.967224 405.906403,232.833450 405.624237,233.773239 
	C401.341797,248.036453 392.617004,259.039551 380.199860,267.728821 
	C379.335663,266.655792 379.056244,265.633728 378.853455,264.338013 
	C379.031128,263.698029 379.132233,263.331757 379.361755,262.849426 
	C379.327972,262.488068 379.165771,262.242798 378.812561,261.702362 
	C376.212616,255.234528 373.197723,249.221756 371.517944,242.856674 
	C367.752747,228.589279 371.302795,221.315018 384.283691,214.170822 
	C386.101410,213.170456 387.609222,211.606964 390.272766,209.505447 
	C387.025146,209.173721 385.484192,209.016312 382.800446,208.742188 
	C384.919617,207.917389 385.949829,207.388489 387.043854,207.112518 
	C392.165741,205.820511 391.203674,201.914200 390.924133,198.277466 
	C390.609528,194.184708 387.585846,195.239700 385.016388,194.917908 
	C380.967529,194.410843 376.656708,194.138000 373.032379,192.495712 
	C366.068298,189.340073 359.343048,189.303482 352.203979,191.402344 
	C350.028473,192.041962 347.464020,191.802292 345.154205,191.455612 
	C339.050934,190.539551 332.989594,189.344315 326.911560,188.260193 
	C326.496552,188.879059 326.081543,189.497925 325.666534,190.116791 
	C328.030609,194.746887 330.394684,199.376999 332.373383,203.991089 
	C318.330017,199.707977 306.177246,201.837524 296.011658,212.432648 
	C294.038147,214.489563 292.037537,214.646866 290.030090,212.011200 
	C288.700653,205.603851 287.373016,199.651794 286.161285,194.219360 
	C282.595184,197.081329 279.453186,201.607819 275.677399,202.219040 
	C267.628143,203.521973 259.152863,203.565201 251.051346,202.544144 
	C247.465912,202.092255 244.364471,197.800217 241.431305,195.549179 
	C238.417572,205.759598 235.273895,216.410294 231.813187,226.920746 
	C229.725266,224.648849 228.106201,222.365082 226.153320,220.415741 
	C221.413757,215.684784 216.518921,211.109421 210.916397,205.732071 
	C209.898666,209.071320 209.383621,210.761230 208.868561,212.451126 
M283.941071,184.365509 
	C285.460419,179.975510 286.349640,175.225082 288.616180,171.262436 
	C295.686768,158.900818 292.791962,146.852859 288.251892,134.800568 
	C284.981781,126.119652 278.275543,121.553177 269.180969,121.155914 
	C263.252228,120.896935 257.222015,121.314575 251.347870,122.179871 
	C248.610123,122.583145 245.388382,124.154480 243.665985,126.248932 
	C234.788345,137.044281 231.946716,149.951370 234.648422,163.250961 
	C236.574677,172.733368 241.005325,181.738922 244.625061,190.835236 
	C247.462143,197.964767 251.667145,199.990891 259.240082,198.990417 
	C261.956879,198.631516 264.790527,198.593689 267.509033,198.921585 
	C274.435303,199.756989 278.030670,198.024185 281.214691,191.618439 
	C282.244659,189.546310 282.927063,187.301392 283.941071,184.365509 
M214.087540,141.588699 
	C212.337509,143.369064 210.219254,144.921768 208.938950,146.992569 
	C207.605362,149.149490 205.983749,152.011337 206.394501,154.208603 
	C208.039215,163.006836 211.943634,170.932709 218.135300,177.500946 
	C220.828903,180.358398 223.645920,179.885986 225.236359,176.272156 
	C226.553940,173.278366 227.404205,169.986923 227.905014,166.741486 
	C230.133179,152.302017 229.612549,137.200821 238.482422,124.011513 
	C235.299789,124.819069 232.221313,125.713104 229.913712,127.566811 
	C224.608582,131.828445 219.678665,136.557175 214.087540,141.588699 
M288.906677,126.826042 
	C294.044342,134.667969 296.040283,143.474503 297.127472,152.638107 
	C298.003113,160.018478 298.711945,167.504272 300.596405,174.652878 
	C302.170624,180.624466 306.511078,181.322113 309.754120,176.274063 
	C313.578217,170.321625 316.681427,163.839630 319.487305,157.324554 
	C321.153595,153.455490 320.141541,149.502396 316.812347,146.423965 
	C310.841156,140.902557 305.120483,135.090363 298.913025,129.852570 
	C295.784943,127.213142 291.819122,125.566582 288.232147,123.471054 
	C287.992279,123.847626 287.752411,124.224205 287.512573,124.600777 
	C287.847656,125.154541 288.182739,125.708313 288.906677,126.826042 
z"/>
<path fill="#8AC097" opacity="1.000000" stroke="none" 
	d="
M290.031921,212.466492 
	C292.037537,214.646866 294.038147,214.489563 296.011658,212.432648 
	C306.177246,201.837524 318.330017,199.707977 332.566711,204.278564 
	C342.213135,212.527161 346.835205,222.479431 345.357361,234.521545 
	C344.852081,238.638992 345.372131,240.322479 349.237640,242.413376 
	C360.063812,248.269363 369.321625,255.923996 372.303528,269.217346 
	C372.594879,271.004333 372.818695,272.432312 373.042542,273.860321 
	C368.168365,277.507935 363.294159,281.155548 357.813232,285.086670 
	C355.452271,286.629028 353.698059,287.887878 351.943848,289.146729 
	C346.940369,291.560394 341.936890,293.974060 336.933411,296.387695 
	C336.993103,296.920258 337.052765,297.452789 337.112427,297.985321 
	C344.068268,298.285828 351.205170,299.711273 357.938232,298.627502 
	C368.475403,296.931488 377.368958,300.878326 386.736633,304.823822 
	C385.229614,310.660461 383.608643,315.908142 381.987671,321.155823 
	C368.009277,321.282532 354.030914,321.413574 340.052399,321.525024 
	C339.224731,321.531616 338.347473,321.163910 337.574799,321.336121 
	C328.059845,323.456177 323.578918,319.226288 321.498901,310.071472 
	C320.232239,304.496521 317.105042,299.310211 314.552826,294.076477 
	C313.357117,291.624390 313.457977,290.120331 315.552765,288.073151 
	C331.411591,272.574524 332.343262,267.787262 324.315552,247.543503 
	C323.688599,245.962494 323.717926,244.051590 323.736389,242.297104 
	C323.795868,236.637985 324.195404,230.976044 324.075195,225.323441 
	C323.972595,220.498184 322.661072,219.821121 318.772461,222.438721 
	C314.914825,225.035477 311.419647,228.177551 307.521759,230.704498 
	C305.769714,231.840286 303.446869,232.504990 301.344238,232.610611 
	C295.907837,232.883636 290.442108,232.896927 285.004608,232.650208 
	C283.074341,232.562637 280.963318,231.771225 279.334076,230.696060 
	C275.732330,228.319214 272.425446,225.500336 268.908905,222.986893 
	C267.733643,222.146866 266.286530,221.687195 264.427582,220.796921 
	C261.932159,227.739304 263.328033,234.539795 263.087921,241.212845 
	C262.995392,243.784439 262.361237,246.343338 261.879578,248.890198 
	C261.728180,249.690674 261.291718,250.443207 260.947876,251.200485 
	C254.904205,264.510315 257.685486,275.994598 268.695099,285.234100 
	C273.331238,289.124817 273.441864,292.575378 270.853271,297.649384 
	C267.613373,303.999939 265.434998,310.884155 262.460571,317.383362 
	C261.659943,319.132721 259.675842,321.481232 258.162262,321.535797 
	C254.551208,321.665985 249.980408,323.671326 247.795410,318.331238 
	C242.502655,305.395752 237.074234,292.515869 231.718399,279.606110 
	C230.973022,277.809418 230.328857,275.970764 229.913940,274.878387 
	C224.392365,277.341034 219.380432,280.816559 213.929169,281.763794 
	C200.241821,284.142212 190.838303,275.462708 190.151306,260.953156 
	C190.072678,259.292084 190.183716,257.622070 190.572876,255.449814 
	C192.160614,254.327408 193.382263,253.711411 194.603912,253.095413 
	C195.005066,257.364716 194.823502,261.791443 195.925583,265.871399 
	C198.416763,275.094025 206.624359,279.204773 215.735840,276.382690 
	C231.584717,271.473877 239.300400,254.388397 232.209427,239.561310 
	C230.436386,235.853897 228.063553,232.433334 226.116226,228.253235 
	C228.115417,228.091812 229.964752,228.558105 232.007446,229.319550 
	C233.997757,232.683319 235.794708,235.751953 238.134964,239.748352 
	C238.598373,237.895126 238.779953,237.158585 238.966782,236.423401 
	C242.134308,223.957932 249.259140,215.140671 261.819183,211.045746 
	C271.464203,207.901169 280.784027,208.900299 290.031921,212.466492 
z"/>
<path fill="#262E4A" opacity="1.000000" stroke="none" 
	d="
M138.011566,414.200562 
	C135.014587,423.445190 131.978134,432.259766 129.286758,441.178528 
	C128.440125,443.984100 127.080238,444.676331 124.330948,444.695129 
	C111.492859,444.782959 111.508003,444.859039 107.759575,432.717010 
	C102.311195,415.068420 96.834251,397.428680 91.386864,379.779785 
	C90.951775,378.370178 90.651520,376.918945 90.233879,375.271179 
	C95.782280,375.271179 101.068481,375.271179 106.661736,375.271179 
	C111.008255,391.517181 115.324989,407.651886 119.641716,423.786560 
	C119.928238,423.826752 120.214752,423.866974 120.501266,423.907196 
	C121.319725,420.825195 122.119278,417.738037 122.959984,414.662109 
	C126.250496,402.622955 129.621353,390.605103 132.797394,378.535889 
	C133.454361,376.039429 134.407166,374.884399 137.161865,375.039093 
	C141.302612,375.271606 145.466064,375.099640 150.509140,375.099640 
	C146.271194,388.325958 142.188324,401.068359 138.011566,414.200562 
z"/>
<path fill="#262E4B" opacity="1.000000" stroke="none" 
	d="
M198.678146,418.938721 
	C198.510742,420.833801 198.343246,422.284485 198.143677,424.012817 
	C187.355896,424.012817 176.901306,424.012817 166.441757,424.012817 
	C166.700699,433.819336 176.521347,435.929657 189.744308,429.254150 
	C191.914032,431.915253 194.102966,434.599915 196.627777,437.696564 
	C188.368561,445.576752 178.565170,446.935791 168.072784,444.588989 
	C158.316330,442.406738 152.224213,435.081757 151.010345,424.853210 
	C150.678955,422.060822 150.615723,419.203247 150.762756,416.393036 
	C151.538925,401.558044 159.785889,393.071747 173.625702,392.719818 
	C187.994476,392.354462 196.643112,400.127747 198.413651,415.015900 
	C198.550858,416.169556 198.592178,417.334595 198.678146,418.938721 
M181.211777,414.097626 
	C181.769989,412.944885 182.969086,411.668335 182.774490,410.661041 
	C181.970154,406.497528 178.082245,404.342346 173.165878,404.949097 
	C168.598175,405.512848 166.264709,408.604889 166.424713,414.096954 
	C171.035248,414.096954 175.653885,414.096954 181.211777,414.097626 
z"/>
<path fill="#252D4A" opacity="1.000000" stroke="none" 
	d="
M224.957153,388.933594 
	C225.021164,390.705658 225.086685,392.003265 225.171127,393.675507 
	C228.307343,393.675507 231.258438,393.675507 234.548965,393.675507 
	C234.548965,397.627838 234.548965,401.202179 234.548965,405.200317 
	C231.656235,405.200317 228.706650,405.200317 225.182297,405.200317 
	C225.182297,413.328796 224.599823,421.131897 225.559219,428.740570 
	C225.825623,430.853363 230.664322,432.389679 233.405334,434.190460 
	C233.651794,433.827820 233.898270,433.465210 234.144730,433.102570 
	C234.242920,433.225800 234.450836,433.386047 234.423538,433.466919 
	C233.151016,437.235504 237.755051,443.135773 231.316864,444.827301 
	C222.192734,447.224426 213.370010,443.239319 211.217880,436.205505 
	C210.171295,432.784973 210.080048,429.006287 209.975815,425.377716 
	C209.790298,418.918274 209.923691,412.449646 209.923691,405.893158 
	C207.346573,405.689209 205.235672,405.522156 202.895630,405.336975 
	C202.895630,401.518036 202.895630,397.916443 202.895630,394.114960 
	C205.124741,393.972565 207.232132,393.837952 209.854645,393.670441 
	C209.854645,389.298462 209.854645,385.057617 209.854645,380.700623 
	C215.134048,380.700623 219.880966,380.700623 224.958649,380.700623 
	C224.958649,383.508362 224.958649,385.983734 224.957153,388.933594 
z"/>
<path fill="#92C399" opacity="1.000000" stroke="none" 
	d="
M489.619507,437.568237 
	C485.381226,442.395630 480.004395,444.219757 474.285522,444.589447 
	C467.845703,445.005676 461.358215,444.685181 454.410767,444.685181 
	C454.410767,424.920807 454.410767,405.419769 454.410767,384.506958 
	C463.452881,385.270782 472.603668,385.220520 481.369080,387.033661 
	C488.965546,388.605011 493.553223,394.910980 494.292511,402.530975 
	C495.072906,410.574799 494.856628,418.795715 494.178406,426.863831 
	C493.877899,430.438416 491.369812,433.827454 489.619507,437.568237 
M460.788757,404.508698 
	C460.788757,415.752594 460.788757,426.996490 460.788757,438.433746 
	C465.904877,438.433746 470.382141,438.857849 474.748352,438.342010 
	C482.868835,437.382629 487.541382,432.285614 487.931732,424.158691 
	C488.226288,418.025665 488.200256,411.858215 487.936401,405.722412 
	C487.640564,398.843872 483.812836,393.271606 478.123566,392.224884 
	C472.675964,391.222595 467.039093,391.249054 460.788330,390.769958 
	C460.788330,395.645813 460.788330,399.579102 460.788757,404.508698 
z"/>
<path fill="#8FC196" opacity="1.000000" stroke="none" 
	d="
M342.167908,425.606445 
	C342.391052,416.843872 341.827789,408.415924 343.066467,400.261780 
	C344.718109,389.389343 354.291138,383.251434 365.988098,384.178772 
	C376.764923,385.033142 384.616516,392.964691 385.020050,403.743866 
	C385.263000,410.233612 385.184509,416.740784 385.074249,423.237122 
	C384.846924,436.634369 377.519592,444.898224 365.263641,445.755280 
	C352.704102,446.633636 344.344147,439.500702 342.167908,425.606445 
M354.157562,393.540558 
	C353.005737,395.144348 351.277679,396.592743 350.796387,398.377350 
	C347.851562,409.297089 347.692047,420.411316 350.681427,431.264252 
	C352.343567,437.298706 359.209808,440.578888 365.484375,439.677795 
	C372.614044,438.653900 377.526398,434.287231 377.968658,427.557770 
	C378.456970,420.127441 378.723145,412.610474 378.170807,405.199463 
	C377.164001,391.690643 366.833282,386.544525 354.157562,393.540558 
z"/>
<path fill="#90C297" opacity="1.000000" stroke="none" 
	d="
M277.729431,443.972473 
	C272.963959,444.713959 268.523407,445.965637 264.149963,445.763855 
	C253.742035,445.283600 245.760117,437.270966 245.222061,426.760986 
	C244.771622,417.962128 244.736938,409.103638 245.191345,400.306305 
	C245.802887,388.467010 255.150131,380.800446 267.638458,381.214050 
	C280.116333,381.627380 287.993561,389.337219 288.273010,401.740784 
	C286.196686,401.740784 284.123260,401.740784 281.797272,401.740784 
	C281.513275,400.454010 281.290314,399.168182 280.943146,397.916840 
	C279.161530,391.495667 274.212769,387.888153 267.201752,387.858643 
	C259.816467,387.827545 253.665390,391.284424 253.114624,397.857605 
	C252.234116,408.366089 252.177292,419.078796 253.204529,429.564880 
	C253.901688,436.681427 259.757141,439.991791 267.484619,440.031189 
	C275.313232,440.071106 279.307281,437.372284 281.273346,429.767731 
	C282.112183,426.523163 283.856903,425.343018 286.425751,426.437653 
	C287.470428,426.882751 288.140106,429.804016 287.882050,431.423645 
	C286.951508,437.263794 283.333588,441.252319 277.729431,443.972473 
z"/>
<path fill="#8FC295" opacity="1.000000" stroke="none" 
	d="
M398.841827,413.999207 
	C398.842010,404.355743 398.842010,395.212097 398.842010,385.495850 
	C400.866577,385.393951 402.581177,385.307648 405.089691,385.181396 
	C405.089691,387.514313 405.072968,389.437805 405.092407,391.360870 
	C405.213501,403.336823 404.839722,415.346222 405.635162,427.277527 
	C406.227142,436.157013 412.217957,440.592712 420.386322,439.864624 
	C428.658447,439.127319 432.174042,434.985931 432.317169,425.746765 
	C432.502686,413.771301 432.656647,401.795288 432.841156,389.819794 
	C432.861237,388.515167 432.993011,387.212280 433.094208,385.561951 
	C435.009918,385.561951 436.725555,385.561951 439.101166,385.561951 
	C439.101166,393.338898 439.100708,400.945587 439.101318,408.552246 
	C439.101746,414.045471 438.798950,419.558838 439.160309,425.028290 
	C440.383850,443.548920 422.248291,448.652100 410.673828,444.260284 
	C403.155823,441.407623 399.222931,435.975800 398.942169,427.980774 
	C398.784515,423.491211 398.867218,418.993225 398.841827,413.999207 
z"/>
<path fill="#92C399" opacity="1.000000" stroke="none" 
	d="
M300.954163,433.973572 
	C300.955292,417.692078 300.955292,401.906891 300.955292,385.659393 
	C303.214142,385.659393 305.213318,385.659393 307.781281,385.659393 
	C307.781281,393.922058 307.778625,402.027710 307.782074,410.133362 
	C307.785370,417.947968 307.958160,425.767334 307.729706,433.575043 
	C307.622894,437.224792 308.683380,438.583099 312.486267,438.453156 
	C320.099060,438.193024 327.727020,438.375946 335.718445,438.375946 
	C335.718445,440.570465 335.718445,442.295685 335.718445,444.418823 
	C324.357788,444.418823 313.004761,444.418823 300.953033,444.418823 
	C300.953033,441.001282 300.953033,437.735565 300.954163,433.973572 
z"/>
<path fill="#83C5DB" opacity="1.000000" stroke="none" 
	d="
M352.176758,289.403107 
	C353.698059,287.887878 355.452271,286.629028 357.483246,285.221649 
	C358.623688,285.937103 359.347443,287.304504 360.372101,287.589294 
	C375.025696,291.662140 389.772614,293.262909 404.506195,288.066498 
	C417.102081,283.624054 421.888336,274.533569 418.882965,261.571899 
	C418.652344,260.577362 419.412781,259.353058 419.712585,258.235565 
	C421.016785,259.000458 423.047028,259.465973 423.506104,260.579315 
	C426.267456,267.276123 425.775116,273.977509 422.061859,280.190216 
	C415.615326,290.975830 404.985474,294.759247 393.385620,295.742523 
	C379.352539,296.932098 365.455017,295.801697 352.176758,289.403107 
z"/>
<path fill="#7CC0D3" opacity="1.000000" stroke="none" 
	d="
M382.233826,321.336700 
	C383.608643,315.908142 385.229614,310.660461 387.024414,305.030823 
	C389.630066,305.050751 392.066437,305.804199 394.492645,305.772919 
	C398.222504,305.724854 399.184723,307.266479 399.071930,310.827301 
	C398.806061,319.218109 399.134735,317.806458 391.883972,318.243805 
	C388.695099,318.436188 385.611389,320.372894 382.233826,321.336700 
z"/>
<path fill="#8EC5A6" opacity="1.000000" stroke="none" 
	d="
M231.814102,229.024414 
	C229.964752,228.558105 228.115417,228.091812 226.062164,227.908051 
	C220.349304,223.086273 214.840363,217.981964 209.099976,212.664398 
	C209.383621,210.761230 209.898666,209.071320 210.916397,205.732071 
	C216.518921,211.109421 221.413757,215.684784 226.153320,220.415741 
	C228.106201,222.365082 229.725266,224.648849 231.779480,227.250214 
	C231.979889,228.154770 231.897003,228.589584 231.814102,229.024414 
z"/>
<path fill="#83C5DB" opacity="1.000000" stroke="none" 
	d="
M192.560028,240.925613 
	C194.240723,231.702484 195.922729,222.479874 202.940887,215.257233 
	C202.921494,223.122223 199.121658,230.028641 196.994904,237.921539 
	C195.172012,239.238525 193.866028,240.082062 192.560028,240.925613 
z"/>
<path fill="#95C6C3" opacity="1.000000" stroke="none" 
	d="
M192.360901,241.219543 
	C193.866028,240.082062 195.172012,239.238525 196.768311,238.205490 
	C196.328796,242.768387 195.598969,247.520767 194.736526,252.684296 
	C193.382263,253.711411 192.160614,254.327408 190.646622,255.010681 
	C190.956787,250.556473 191.559280,246.034973 192.360901,241.219543 
z"/>
<path fill="#87C9E0" opacity="1.000000" stroke="none" 
	d="
M168.835876,233.548065 
	C170.900452,232.684647 172.842300,231.810455 174.759918,231.860703 
	C175.312820,231.875168 176.557053,234.868134 176.116013,235.924026 
	C175.580505,237.206085 172.780441,238.940811 172.383316,238.634491 
	C170.849335,237.451355 169.882248,235.533279 168.835876,233.548065 
z"/>
<path fill="#87C9E0" opacity="1.000000" stroke="none" 
	d="
M433.399902,232.494232 
	C432.445862,234.188644 431.476715,235.740097 430.118164,236.785507 
	C429.800323,237.030106 427.514130,235.723709 427.290710,234.838760 
	C426.985443,233.629700 427.787994,232.140945 428.115662,230.772095 
	C429.824707,231.236969 431.533783,231.701843 433.399902,232.494232 
z"/>
<path fill="#83C5DB" opacity="1.000000" stroke="none" 
	d="
M373.353546,273.757721 
	C372.818695,272.432312 372.594879,271.004333 372.625549,269.215515 
	C374.845642,267.440369 376.811249,266.026031 378.776855,264.611694 
	C379.056244,265.633728 379.335663,266.655792 379.934326,267.927063 
	C378.057251,270.002563 375.860901,271.828857 373.353546,273.757721 
z"/>
<path fill="#FCFEFE" opacity="1.000000" stroke="none" 
	d="
M283.854767,184.750519 
	C282.927063,187.301392 282.244659,189.546310 281.214691,191.618439 
	C278.030670,198.024185 274.435303,199.756989 267.509033,198.921585 
	C264.790527,198.593689 261.956879,198.631516 259.240082,198.990417 
	C251.667145,199.990891 247.462143,197.964767 244.625061,190.835236 
	C241.005325,181.738922 236.574677,172.733368 234.648422,163.250961 
	C231.946716,149.951370 234.788345,137.044281 243.665985,126.248932 
	C245.388382,124.154480 248.610123,122.583145 251.347870,122.179871 
	C257.222015,121.314575 263.252228,120.896935 269.180969,121.155914 
	C278.275543,121.553177 284.981781,126.119652 288.251892,134.800568 
	C292.791962,146.852859 295.686768,158.900818 288.616180,171.262436 
	C286.349640,175.225082 285.460419,179.975510 283.854767,184.750519 
M267.637115,177.431442 
	C264.985382,177.317764 262.216705,176.684631 259.717316,177.247498 
	C257.545502,177.736603 254.616760,179.189224 253.977524,180.932770 
	C253.348358,182.648895 254.726700,185.603714 256.062469,187.387207 
	C257.248749,188.971069 259.457916,190.128265 261.439514,190.706223 
	C265.526062,191.898087 271.119904,188.310089 272.387726,183.955276 
	C273.402222,180.470566 271.538574,178.646362 267.637115,177.431442 
M281.003265,154.748825 
	C279.503479,153.982117 278.048981,152.836334 276.480011,152.649002 
	C275.911133,152.581055 274.392822,154.896667 274.537842,155.956329 
	C274.687988,157.053421 276.738251,158.945602 277.243317,158.739563 
	C278.711578,158.140625 279.822357,156.665283 281.003265,154.748825 
M246.011597,153.498566 
	C246.393524,155.180130 246.529449,156.993042 247.312851,158.460251 
	C247.537018,158.880127 250.189621,158.747482 250.740265,158.067627 
	C251.492035,157.139465 251.866394,154.542297 251.401672,154.249512 
	C250.043213,153.393784 248.188293,153.326157 246.011597,153.498566 
z"/>
<path fill="#FCFEFD" opacity="1.000000" stroke="none" 
	d="
M378.853455,264.338013 
	C376.811249,266.026031 374.845642,267.440369 372.557983,268.856567 
	C369.321625,255.923996 360.063812,248.269363 349.237640,242.413376 
	C345.372131,240.322479 344.852081,238.638992 345.357361,234.521545 
	C346.835205,222.479431 342.213135,212.527161 332.952087,204.294571 
	C330.394684,199.376999 328.030609,194.746887 325.666534,190.116791 
	C326.081543,189.497925 326.496552,188.879059 326.911560,188.260193 
	C332.989594,189.344315 339.050934,190.539551 345.154205,191.455612 
	C347.464020,191.802292 350.028473,192.041962 352.203979,191.402344 
	C359.343048,189.303482 366.068298,189.340073 373.032379,192.495712 
	C376.656708,194.138000 380.967529,194.410843 385.016388,194.917908 
	C387.585846,195.239700 390.609528,194.184708 390.924133,198.277466 
	C391.203674,201.914200 392.165741,205.820511 387.043854,207.112518 
	C385.949829,207.388489 384.919617,207.917389 382.800446,208.742188 
	C385.484192,209.016312 387.025146,209.173721 390.272766,209.505447 
	C387.609222,211.606964 386.101410,213.170456 384.283691,214.170822 
	C371.302795,221.315018 367.752747,228.589279 371.517944,242.856674 
	C373.197723,249.221756 376.212616,255.234528 378.830872,261.953674 
	C379.104584,262.655212 379.168976,262.810333 379.233368,262.965485 
	C379.132233,263.331757 379.031128,263.698029 378.853455,264.338013 
z"/>
<path fill="#FAFDFD" opacity="1.000000" stroke="none" 
	d="
M214.342010,141.342529 
	C219.678665,136.557175 224.608582,131.828445 229.913712,127.566811 
	C232.221313,125.713104 235.299789,124.819069 238.482422,124.011513 
	C229.612549,137.200821 230.133179,152.302017 227.905014,166.741486 
	C227.404205,169.986923 226.553940,173.278366 225.236359,176.272156 
	C223.645920,179.885986 220.828903,180.358398 218.135300,177.500946 
	C211.943634,170.932709 208.039215,163.006836 206.394501,154.208603 
	C205.983749,152.011337 207.605362,149.149490 208.938950,146.992569 
	C210.219254,144.921768 212.337509,143.369064 214.342010,141.342529 
z"/>
<path fill="#FAFDFD" opacity="1.000000" stroke="none" 
	d="
M288.712250,126.544060 
	C288.182739,125.708313 287.847656,125.154541 287.512573,124.600777 
	C287.752411,124.224205 287.992279,123.847626 288.232147,123.471054 
	C291.819122,125.566582 295.784943,127.213142 298.913025,129.852570 
	C305.120483,135.090363 310.841156,140.902557 316.812347,146.423965 
	C320.141541,149.502396 321.153595,153.455490 319.487305,157.324554 
	C316.681427,163.839630 313.578217,170.321625 309.754120,176.274063 
	C306.511078,181.322113 302.170624,180.624466 300.596405,174.652878 
	C298.711945,167.504272 298.003113,160.018478 297.127472,152.638107 
	C296.040283,143.474503 294.044342,134.667969 288.712250,126.544060 
z"/>
<path fill="#F9FDFB" opacity="1.000000" stroke="none" 
	d="
M232.007446,229.319550 
	C231.897003,228.589584 231.979889,228.154770 232.096497,227.390472 
	C235.273895,216.410294 238.417572,205.759598 241.431305,195.549179 
	C244.364471,197.800217 247.465912,202.092255 251.051346,202.544144 
	C259.152863,203.565201 267.628143,203.521973 275.677399,202.219040 
	C279.453186,201.607819 282.595184,197.081329 286.161285,194.219360 
	C287.373016,199.651794 288.700653,205.603851 290.030090,212.011200 
	C280.784027,208.900299 271.464203,207.901169 261.819183,211.045746 
	C249.259140,215.140671 242.134308,223.957932 238.966782,236.423401 
	C238.779953,237.158585 238.598373,237.895126 238.134964,239.748352 
	C235.794708,235.751953 233.997757,232.683319 232.007446,229.319550 
z"/>
<path fill="#83C5DB" opacity="1.000000" stroke="none" 
	d="
M379.361755,262.849426 
	C379.168976,262.810333 379.104584,262.655212 379.021912,262.248840 
	C379.165771,262.242798 379.327972,262.488068 379.361755,262.849426 
z"/>
<path fill="#F9FDFB" opacity="1.000000" stroke="none" 
	d="
M180.742142,414.097290 
	C175.653885,414.096954 171.035248,414.096954 166.424713,414.096954 
	C166.264709,408.604889 168.598175,405.512848 173.165878,404.949097 
	C178.082245,404.342346 181.970154,406.497528 182.774490,410.661041 
	C182.969086,411.668335 181.769989,412.944885 180.742142,414.097290 
z"/>
<path fill="#FDFEFD" opacity="1.000000" stroke="none" 
	d="
M460.788544,404.010559 
	C460.788330,399.579102 460.788330,395.645813 460.788330,390.769958 
	C467.039093,391.249054 472.675964,391.222595 478.123566,392.224884 
	C483.812836,393.271606 487.640564,398.843872 487.936401,405.722412 
	C488.200256,411.858215 488.226288,418.025665 487.931732,424.158691 
	C487.541382,432.285614 482.868835,437.382629 474.748352,438.342010 
	C470.382141,438.857849 465.904877,438.433746 460.788757,438.433746 
	C460.788757,426.996490 460.788757,415.752594 460.788544,404.010559 
z"/>
<path fill="#FCFEFC" opacity="1.000000" stroke="none" 
	d="
M354.466400,393.322144 
	C366.833282,386.544525 377.164001,391.690643 378.170807,405.199463 
	C378.723145,412.610474 378.456970,420.127441 377.968658,427.557770 
	C377.526398,434.287231 372.614044,438.653900 365.484375,439.677795 
	C359.209808,440.578888 352.343567,437.298706 350.681427,431.264252 
	C347.692047,420.411316 347.851562,409.297089 350.796387,398.377350 
	C351.277679,396.592743 353.005737,395.144348 354.466400,393.322144 
z"/>
<path fill="#7AC5DE" opacity="1.000000" stroke="none" 
	d="
M268.026123,177.568115 
	C271.538574,178.646362 273.402222,180.470566 272.387726,183.955276 
	C271.119904,188.310089 265.526062,191.898087 261.439514,190.706223 
	C259.457916,190.128265 257.248749,188.971069 256.062469,187.387207 
	C254.726700,185.603714 253.348358,182.648895 253.977524,180.932770 
	C254.616760,179.189224 257.545502,177.736603 259.717316,177.247498 
	C262.216705,176.684631 264.985382,177.317764 268.026123,177.568115 
z"/>
<path fill="#87C9E0" opacity="1.000000" stroke="none" 
	d="
M281.038330,155.141266 
	C279.822357,156.665283 278.711578,158.140625 277.243317,158.739563 
	C276.738251,158.945602 274.687988,157.053421 274.537842,155.956329 
	C274.392822,154.896667 275.911133,152.581055 276.480011,152.649002 
	C278.048981,152.836334 279.503479,153.982117 281.038330,155.141266 
z"/>
<path fill="#87C9E0" opacity="1.000000" stroke="none" 
	d="
M246.269775,153.224106 
	C248.188293,153.326157 250.043213,153.393784 251.401672,154.249512 
	C251.866394,154.542297 251.492035,157.139465 250.740265,158.067627 
	C250.189621,158.747482 247.537018,158.880127 247.312851,158.460251 
	C246.529449,156.993042 246.393524,155.180130 246.269775,153.224106 
z"/>
</svg>